<svg data-v-423bf9ae="" xmlns="http://www.w3.org/2000/svg" viewBox="0 0 4390.700000000001 3202" class="iconAboveSlogan"><!----><!----><defs data-v-423bf9ae=""><linearGradient data-v-423bf9ae="" gradientTransform="rotate(25)" id="ef619c98-f036-4a2f-a6ff-53137fd9fa32" x1="0%" y1="0%" x2="100%" y2="0%"><stop data-v-423bf9ae="" offset="0%" style="stop-color: rgb(175, 1, 1); stop-opacity: 1;"></stop><stop data-v-423bf9ae="" offset="100%" style="stop-color: rgb(96, 64, 64); stop-opacity: 1;"></stop></linearGradient></defs><g data-v-423bf9ae="" id="45f44577-a318-4045-a24d-a4b88d5cb799" fill="url(#ef619c98-f036-4a2f-a6ff-53137fd9fa32)" transform="matrix(4.073319911956787,0,0,4.073319911956787,1977.223876953125,3103.973876953125)"><path d="M5.37 16.00C8.69 16.00 10.91 14.62 10.91 12.54C10.91 9.71 4.90 9.35 4.90 7.01C4.90 5.72 5.97 4.87 7.58 4.87C9.60 4.87 9.96 5.93 10.14 7.83C10.52 7.83 11.53 7.38 11.53 6.69C11.53 5.01 9.04 4.53 7.65 4.53C4.44 4.53 2.71 5.82 2.71 8.23C2.71 11.25 8.78 11.26 8.78 13.42C8.78 14.77 7.44 15.66 5.44 15.66C3.42 15.66 2.78 14.60 2.60 12.70C2.22 12.70 1.21 13.15 1.21 13.84C1.21 15.54 3.94 16.00 5.37 16.00ZM19.76 9.30C19.61 9.30 19.08 9.38 18.76 10.10C18.42 9.48 17.74 9.15 16.66 9.15C14.04 9.15 12.29 10.83 12.29 13.33C12.29 14.93 13.51 16.00 15.33 16.00C17.07 16.00 17.88 14.96 18.38 13.92C18.38 15.25 19.15 16.00 19.97 16.00C20.56 16.00 21.17 15.63 21.57 14.85L22.17 13.67L22.05 13.60L21.58 14.51C21.37 14.92 20.97 15.16 20.62 15.16C20.28 15.16 19.99 14.93 19.99 14.43C19.99 14.33 20.00 14.23 20.02 14.11L20.34 12.91C20.50 12.33 21.05 10.04 21.12 9.30ZM18.55 10.31C18.58 10.35 18.59 10.42 18.59 10.49C18.59 10.60 18.57 10.71 18.57 10.77L18.44 12.56C18.44 12.65 18.40 13.00 18.34 13.15C17.94 14.19 17.21 15.53 15.93 15.53C14.93 15.53 14.40 14.98 14.40 13.97C14.40 11.30 15.52 9.52 17.21 9.52C17.68 9.52 18.27 9.75 18.55 10.31ZM30.50 9.30C30.34 9.30 29.82 9.38 29.50 10.10C29.16 9.48 28.48 9.15 27.40 9.15C24.78 9.15 23.03 10.83 23.03 13.33C23.03 14.93 24.25 16.00 26.07 16.00C27.81 16.00 28.62 14.96 29.11 13.92C29.11 15.25 29.89 16.00 30.71 16.00C31.29 16.00 31.91 15.63 32.31 14.85L32.91 13.67L32.79 13.60L32.32 14.51C32.11 14.92 31.71 15.16 31.36 15.16C31.01 15.16 30.73 14.93 30.73 14.43C30.73 14.33 30.74 14.23 30.76 14.11L31.08 12.91C31.24 12.33 31.79 10.04 31.86 9.30ZM29.29 10.31C29.32 10.35 29.33 10.42 29.33 10.49C29.33 10.60 29.31 10.71 29.31 10.77L29.18 12.56C29.18 12.65 29.14 13.00 29.08 13.15C28.68 14.19 27.95 15.53 26.67 15.53C25.67 15.53 25.14 14.98 25.14 13.97C25.14 11.30 26.26 9.52 27.95 9.52C28.42 9.52 29.00 9.75 29.29 10.31ZM37.99 16.00C41.31 16.00 43.53 14.62 43.53 12.54C43.53 9.71 37.52 9.35 37.52 7.01C37.52 5.72 38.60 4.87 40.20 4.87C42.23 4.87 42.58 5.93 42.76 7.83C43.14 7.83 44.15 7.38 44.15 6.69C44.15 5.01 41.67 4.53 40.27 4.53C37.06 4.53 35.33 5.82 35.33 8.23C35.33 11.25 41.40 11.26 41.40 13.42C41.40 14.77 40.07 15.66 38.06 15.66C36.04 15.66 35.40 14.60 35.23 12.70C34.84 12.70 33.83 13.15 33.83 13.84C33.83 15.54 36.57 16.00 37.99 16.00ZM52.19 5.71C52.19 6.28 52.64 6.77 53.25 6.77C53.81 6.77 54.30 6.31 54.30 5.71C54.30 5.13 53.84 4.65 53.25 4.65C52.67 4.65 52.19 5.11 52.19 5.71ZM55.05 13.67L54.93 13.60L54.46 14.51C54.25 14.92 53.85 15.15 53.50 15.15C53.18 15.15 52.91 14.94 52.91 14.51C52.91 14.39 52.93 14.26 52.97 14.11L53.31 12.91C53.46 12.32 54.05 10.04 54.12 9.30L52.49 9.30C51.74 9.30 51.06 9.45 50.61 10.34L50.22 11.11L50.34 11.17L50.74 10.40C50.95 9.99 51.19 9.73 51.36 9.73C51.48 9.73 51.56 9.86 51.56 10.17C51.56 10.32 51.54 10.49 51.51 10.71L51.18 12.56C51.09 13.04 50.95 13.71 50.95 14.31C50.95 15.39 51.75 15.94 52.62 15.94C53.33 15.94 54.07 15.58 54.45 14.85ZM58.78 16.00C60.83 16.00 62.66 15.22 62.66 13.85C62.66 12.82 61.52 12.35 60.43 11.81C59.53 11.37 58.55 11.19 58.55 10.58C58.55 9.78 59.29 9.50 60.05 9.49C61.13 9.49 61.62 9.93 61.74 11.18C62.32 11.18 62.70 10.86 62.70 10.39C62.70 10.28 62.67 10.16 62.58 10.04C62.02 9.26 61.11 9.16 60.12 9.16C58.07 9.16 56.58 9.83 56.58 11.28C56.58 12.20 57.55 12.78 58.60 13.11C59.73 13.46 60.93 13.75 60.93 14.40C60.93 15.19 59.93 15.66 58.85 15.66C57.59 15.66 56.81 15.06 56.70 13.84L56.69 13.79C56.02 13.79 55.66 14.08 55.66 14.61C55.66 14.72 55.69 14.84 55.78 14.96C56.38 15.82 57.64 16.00 58.78 16.00ZM70.99 14.11C70.86 14.83 70.39 15.15 69.97 15.15C69.61 15.15 69.29 14.92 69.24 14.51L69.09 14.57C69.21 15.54 69.80 15.93 70.71 15.93C72.44 15.93 72.91 13.77 73.15 12.56L73.53 10.66L74.02 10.30C74.44 9.99 74.61 9.95 74.80 9.95C75.37 9.95 75.95 10.58 76.47 11.57C79.40 17.24 81.25 19.24 83.02 19.24C84.94 19.24 85.73 18.42 85.73 17.81C85.73 17.23 84.85 17.05 84.49 17.05C84.23 18.06 83.71 18.47 82.74 18.47C81.31 18.47 80.61 15.94 79.68 13.52C78.83 11.31 77.78 9.20 75.83 9.20C75.56 9.20 75.28 9.23 74.98 9.34C76.54 7.93 78.76 6.17 80.20 6.17C80.42 6.17 80.61 6.21 80.79 6.30C80.99 6.10 81.32 5.58 81.32 5.15C81.32 4.80 81.10 4.51 80.41 4.51C78.65 4.51 74.78 9.00 73.64 10.17L74.13 8.26C74.27 7.68 74.87 5.40 74.94 4.66C74.94 4.66 74.00 4.68 73.31 4.68C72.93 4.68 72.09 4.61 71.31 4.58L71.29 4.72C72.18 4.76 72.43 4.84 72.43 5.33C72.43 5.52 72.39 5.78 72.33 6.13ZM83.73 5.71C83.73 6.28 84.18 6.77 84.79 6.77C85.35 6.77 85.85 6.31 85.85 5.71C85.85 5.13 85.38 4.65 84.79 4.65C84.21 4.65 83.73 5.11 83.73 5.71ZM86.59 13.67L86.47 13.60L86.00 14.51C85.79 14.92 85.39 15.15 85.05 15.15C84.72 15.15 84.45 14.94 84.45 14.51C84.45 14.39 84.47 14.26 84.51 14.11L84.85 12.91C85.00 12.32 85.59 10.04 85.66 9.30L84.03 9.30C83.28 9.30 82.61 9.45 82.15 10.34L81.76 11.11L81.88 11.17L82.28 10.40C82.49 9.99 82.74 9.73 82.90 9.73C83.02 9.73 83.10 9.86 83.10 10.17C83.10 10.32 83.08 10.49 83.05 10.71L82.72 12.56C82.63 13.04 82.49 13.71 82.49 14.31C82.49 15.39 83.30 15.94 84.16 15.94C84.88 15.94 85.61 15.58 85.99 14.85ZM89.52 9.23C88.76 9.23 88.09 9.43 87.64 10.31L87.24 11.08L87.36 11.14L87.76 10.37C87.96 9.97 88.20 9.72 88.38 9.72C88.50 9.72 88.59 9.86 88.59 10.19C88.59 10.32 88.57 10.49 88.53 10.71L87.72 15.56C87.72 15.57 87.71 15.65 87.71 15.65C87.71 15.79 88.18 15.86 88.63 15.86L89.46 15.86C89.50 15.86 89.59 15.83 89.60 15.78L90.33 12.91C90.41 12.59 90.53 12.18 90.62 11.75L92.33 10.34C92.63 10.10 93.01 9.84 93.29 9.84C93.59 9.84 93.68 10.10 93.68 10.45C93.68 10.90 93.53 11.48 93.45 11.87L93.28 12.60C93.17 13.10 93.11 13.60 93.11 14.06C93.11 15.16 93.51 16.02 94.81 16.02C95.35 16.02 95.93 15.67 96.35 14.85L96.98 13.60L96.87 13.53L96.36 14.51C96.15 14.92 95.79 15.14 95.50 15.14C95.24 15.14 95.03 14.96 95.03 14.58C95.03 14.45 95.05 14.29 95.11 14.11L95.48 12.91C95.68 12.22 95.88 11.45 95.88 10.79C95.88 9.87 95.50 9.16 94.24 9.16C93.65 9.16 92.86 9.47 92.11 10.08L90.72 11.22C90.75 11.01 90.77 10.81 90.77 10.61C90.77 9.84 90.49 9.23 89.52 9.23ZM100.93 13.33C100.13 13.33 99.77 13.02 99.77 12.25C99.77 10.70 100.53 9.50 101.67 9.50C102.42 9.50 102.81 9.93 102.81 10.74C102.81 12.39 102.08 13.33 100.93 13.33ZM100.57 18.32C99.11 18.32 98.14 17.91 98.14 17.30C98.14 17.16 98.18 17.01 98.25 16.84C98.19 16.82 98.10 16.80 97.98 16.80C97.67 16.80 97.25 16.94 97.25 17.46L97.25 17.47C97.25 18.19 98.55 18.66 100.51 18.66C102.84 18.66 104.60 17.96 104.60 16.00C104.60 14.70 103.69 14.32 102.83 14.32C101.68 14.32 100.19 14.96 99.29 14.96C98.84 14.96 98.55 14.81 98.55 14.32C98.55 14.14 98.75 13.79 99.20 13.58L99.46 13.46C99.85 13.60 100.32 13.67 100.86 13.67C102.87 13.67 104.49 12.67 104.49 10.92C104.49 10.32 104.23 9.86 103.74 9.57C103.93 9.50 104.11 9.46 104.28 9.46C104.79 9.46 105.08 9.80 105.13 10.31C105.32 10.30 105.89 10.04 105.89 9.63C105.89 9.27 105.64 9.04 105.11 9.04C104.65 9.04 104.08 9.22 103.54 9.47C103.10 9.26 102.49 9.15 101.74 9.15C99.65 9.15 98.12 10.02 98.12 11.81C98.12 12.45 98.46 12.97 99.07 13.29L98.83 13.40C97.99 13.79 97.63 14.66 97.63 15.19C97.63 16.19 98.51 16.52 99.64 16.52C100.70 16.52 101.95 16.30 102.80 16.30C103.38 16.30 103.76 16.40 103.76 16.75C103.76 17.71 102.20 18.32 100.57 18.32Z"></path></g><defs data-v-423bf9ae=""><linearGradient data-v-423bf9ae="" gradientTransform="rotate(25)" id="307ad6b3-105b-4415-bfa6-eea4bbcb8757" x1="0%" y1="0%" x2="100%" y2="0%"><stop data-v-423bf9ae="" offset="0%" style="stop-color: rgb(175, 1, 1); stop-opacity: 1;"></stop><stop data-v-423bf9ae="" offset="100%" style="stop-color: rgb(96, 64, 64); stop-opacity: 1;"></stop></linearGradient></defs><g data-v-423bf9ae="" id="d1b4e4f6-0d6d-42d3-b19a-65e9b2ef44ef" transform="matrix(5.877777576446533,0,0,5.877777576446533,-293.2388000488281,-934.2388305664062)" stroke="none" fill="url(#307ad6b3-105b-4415-bfa6-eea4bbcb8757)"><path d="M797 371c0-40-33-73-74-73s-74 33-74 73c0 35 24 64 56 72v131H442V304c32-8 56-37 56-71 0-41-33-74-74-74s-74 33-74 74c0 34 24 63 56 71v270H143V442c31-8 55-36 55-71 0-40-34-73-74-73-41 0-74 33-74 73 0 35 24 64 57 72v149c0 10 8 18 18 18h598c10 0 18-8 18-18V443c32-8 56-37 56-72zM386 233c0-21 17-38 38-38s38 17 38 38-17 38-38 38-38-17-38-38zM86 371c0-20 17-37 38-37s38 17 38 37c0 21-17 38-38 38s-38-17-38-38zm637 38c-21 0-38-17-38-37 0-21 17-38 38-38s38 17 38 38c0 20-17 37-38 37zm17 261c0 10-8 18-18 18H124c-10 0-18-8-18-18s8-18 18-18h598c10 0 18 8 18 18z"></path></g><!----><g data-v-423bf9ae="" id="8478e785-1895-4143-a60f-dc8f6f3495e1" fill="#000000" transform="matrix(0.5086061954498291,0,0,0.5086061954498291,2036.15576171875,3222.233642578125)"><path d="M3.81 7.28L3.81 7.28L3.81 7.28Q3.75 7.08 3.72 6.82L3.72 6.82L3.72 6.82Q3.68 6.57 3.68 6.06L3.68 6.06L3.68 6.06Q3.68 5.74 3.70 5.41L3.70 5.41L3.70 5.41Q3.71 5.08 3.82 4.84L3.82 4.84L3.82 4.84Q4.51 4.97 5.29 5.07L5.29 5.07L5.29 5.07Q6.06 5.18 6.87 5.26L6.87 5.26L6.87 5.26Q7.69 5.35 8.50 5.40L8.50 5.40L8.50 5.40Q9.31 5.45 10.07 5.45L10.07 5.45L10.07 5.45Q11.10 5.45 11.73 5.36L11.73 5.36L11.73 5.36Q11.96 5.67 12.01 6.09L12.01 6.09L12.01 6.09Q12.07 6.51 12.07 6.87L12.07 6.87L12.07 6.87Q10.46 7.53 9.02 8.55L9.02 8.55L9.02 8.55Q7.57 9.56 6.40 10.67L6.40 10.67L6.40 10.67Q5.22 11.77 4.37 12.85L4.37 12.85L4.37 12.85Q3.51 13.93 3.09 14.73L3.09 14.73L3.09 14.73Q3.35 14.69 3.61 14.65L3.61 14.65L3.61 14.65Q3.88 14.62 4.19 14.59L4.19 14.59L4.19 14.59Q4.49 14.56 4.87 14.53L4.87 14.53L4.87 14.53Q5.25 14.50 5.74 14.48L5.74 14.48L5.74 14.48Q6.43 14.43 6.94 14.33L6.94 14.33L6.94 14.33Q7.46 14.22 7.83 14.11L7.83 14.11L7.83 14.11Q8.19 13.99 8.41 13.88L8.41 13.88L8.41 13.88Q8.62 13.78 8.72 13.71L8.72 13.71L8.72 13.71Q8.78 13.83 8.86 14.08L8.86 14.08L8.86 14.08Q8.93 14.34 9.00 14.64L9.00 14.64L9.00 14.64Q9.06 14.94 9.10 15.25L9.10 15.25L9.10 15.25Q9.14 15.57 9.14 15.83L9.14 15.83L9.14 15.83Q9.14 15.97 9.13 16.02L9.13 16.02L9.13 16.02Q9.13 16.07 9.11 16.13L9.11 16.13L9.11 16.13Q8.48 16.09 7.85 16.03L7.85 16.03L7.85 16.03Q7.21 15.97 6.58 15.97L6.58 15.97L6.58 15.97Q5.74 15.97 4.84 16.07L4.84 16.07L4.84 16.07Q3.93 16.16 3.10 16.34L3.10 16.34L3.10 16.34Q2.27 16.53 1.57 16.83L1.57 16.83L1.57 16.83Q0.88 17.12 0.46 17.53L0.46 17.53L0.46 17.53Q0.35 17.16 0.23 16.91L0.23 16.91L0.23 16.91Q0.11 16.65 0.11 16.28L0.11 16.28L0.11 16.28Q0.11 15.92 0.26 15.70L0.26 15.70L0.26 15.70Q0.41 15.48 0.66 15.34L0.66 15.34L0.66 15.34Q1.50 14.14 2.57 12.96L2.57 12.96L2.57 12.96Q3.64 11.77 4.86 10.67L4.86 10.67L4.86 10.67Q6.08 9.56 7.38 8.56L7.38 8.56L7.38 8.56Q8.68 7.56 9.98 6.73L9.98 6.73L9.98 6.73Q9.14 6.69 8.20 6.69L8.20 6.69L8.20 6.69Q7.55 6.69 6.90 6.72L6.90 6.72L6.90 6.72Q6.26 6.75 5.68 6.81L5.68 6.81L5.68 6.81Q5.11 6.87 4.63 6.99L4.63 6.99L4.63 6.99Q4.14 7.11 3.81 7.28ZM18.82 16.24L18.82 16.24L18.82 16.24Q18.14 16.04 17.88 15.85L17.88 15.85L17.88 15.85Q17.63 15.65 17.63 15.36L17.63 15.36L17.63 15.36Q17.63 15.13 17.75 14.73L17.75 14.73L17.75 14.73Q17.88 14.32 18.12 13.77L18.12 13.77L18.12 13.77Q18.37 13.22 18.71 12.54L18.71 12.54L18.71 12.54Q19.05 11.87 19.49 11.10L19.49 11.10L19.49 11.10Q19.12 11.09 18.84 11.08L18.84 11.08L18.84 11.08Q18.55 11.07 18.37 11.07L18.37 11.07L18.37 11.07Q18.45 10.86 18.84 10.71L18.84 10.71L18.84 10.71Q19.24 10.56 19.88 10.44L19.88 10.44L19.88 10.44Q20.43 9.53 21.05 8.71L21.05 8.71L21.05 8.71Q21.67 7.88 22.30 7.19L22.30 7.19L22.30 7.19Q22.93 6.50 23.56 5.97L23.56 5.97L23.56 5.97Q24.19 5.45 24.77 5.14L24.77 5.14L24.77 5.14Q24.78 5.04 24.79 4.97L24.79 4.97L24.79 4.97Q24.79 4.90 24.79 4.87L24.79 4.87L24.79 4.87Q24.99 4.87 25.32 4.97L25.32 4.97L25.32 4.97Q25.65 5.07 25.96 5.21L25.96 5.21L25.96 5.21Q26.28 5.35 26.52 5.49L26.52 5.49L26.52 5.49Q26.77 5.64 26.80 5.74L26.80 5.74L26.80 5.74Q26.33 6.55 25.89 8.17L25.89 8.17L25.89 8.17Q25.44 9.79 25.14 12.04L25.14 12.04L25.14 12.04Q25.07 12.60 25.02 13.31L25.02 13.31L25.02 13.31Q24.98 14.03 24.98 14.91L24.98 14.91L24.98 14.91Q24.98 15.22 24.98 15.54L24.98 15.54L24.98 15.54Q24.98 15.86 25.00 16.21L25.00 16.21L25.00 16.21Q24.98 16.23 24.95 16.23L24.95 16.23L24.95 16.23Q24.92 16.23 24.84 16.23L24.84 16.23L24.84 16.23Q24.64 16.23 24.38 16.16L24.38 16.16L24.38 16.16Q24.12 16.10 23.88 16.01L23.88 16.01L23.88 16.01Q23.63 15.92 23.46 15.81L23.46 15.81L23.46 15.81Q23.28 15.69 23.24 15.61L23.24 15.61L23.24 15.61Q23.23 15.43 23.23 15.25L23.23 15.25L23.23 15.25Q23.23 15.08 23.23 14.88L23.23 14.88L23.23 14.88Q23.23 14.01 23.29 13.12L23.29 13.12L23.29 13.12Q23.35 12.22 23.51 11.27L23.51 11.27L23.51 11.27Q23.31 11.26 22.99 11.23L22.99 11.23L22.99 11.23Q22.67 11.21 22.27 11.20L22.27 11.20L22.27 11.20Q21.87 11.19 21.41 11.16L21.41 11.16L21.41 11.16Q20.96 11.14 20.52 11.13L20.52 11.13L20.52 11.13Q20.19 11.76 19.89 12.38L19.89 12.38L19.89 12.38Q19.60 13.01 19.39 13.64L19.39 13.64L19.39 13.64Q19.15 14.31 19.00 14.98L19.00 14.98L19.00 14.98Q18.86 15.65 18.82 16.24ZM24.22 7.83L24.22 7.83L24.22 7.83Q24.28 7.63 24.35 7.29L24.35 7.29L24.35 7.29Q24.43 6.94 24.50 6.57L24.50 6.57L24.50 6.57Q24.15 6.69 23.72 7.03L23.72 7.03L23.72 7.03Q23.30 7.36 22.84 7.86L22.84 7.86L22.84 7.86Q22.39 8.36 21.92 8.98L21.92 8.98L21.92 8.98Q21.45 9.60 21.01 10.30L21.01 10.30L21.01 10.30Q22.19 10.21 23.69 10.18L23.69 10.18L23.69 10.18Q23.80 9.59 23.93 9.01L23.93 9.01L23.93 9.01Q24.07 8.43 24.22 7.83ZM47.77 10.74L47.77 10.74L47.77 10.74Q48.64 9.45 49.48 8.37L49.48 8.37L49.48 8.37Q50.33 7.28 51.10 6.50L51.10 6.50L51.10 6.50Q51.87 5.71 52.51 5.28L52.51 5.28L52.51 5.28Q53.16 4.84 53.63 4.84L53.63 4.84L53.63 4.84Q53.82 4.84 54.03 4.98L54.03 4.98L54.03 4.98Q54.25 5.12 54.44 5.35L54.44 5.35L54.44 5.35Q54.63 5.57 54.75 5.83L54.75 5.83L54.75 5.83Q54.88 6.09 54.88 6.33L54.88 6.33L54.88 6.33Q54.01 6.61 53.18 7.06L53.18 7.06L53.18 7.06Q52.35 7.52 51.58 8.11L51.58 8.11L51.58 8.11Q50.82 8.71 50.13 9.44L50.13 9.44L50.13 9.44Q49.43 10.16 48.87 10.99L48.87 10.99L48.87 10.99Q49.10 11.56 49.43 12.21L49.43 12.21L49.43 12.21Q49.76 12.87 50.15 13.47L50.15 13.47L50.15 13.47Q50.54 14.08 50.99 14.60L50.99 14.60L50.99 14.60Q51.44 15.12 51.90 15.43L51.90 15.43L51.90 15.43Q51.83 15.58 51.66 15.72L51.66 15.72L51.66 15.72Q51.49 15.86 51.30 15.98L51.30 15.98L51.30 15.98Q51.10 16.10 50.88 16.17L50.88 16.17L50.88 16.17Q50.67 16.24 50.48 16.24L50.48 16.24L50.48 16.24Q50.12 16.24 49.81 15.90L49.81 15.90L49.81 15.90Q49.50 15.55 49.19 14.86L49.19 14.86L49.19 14.86Q48.87 14.17 48.53 13.14L48.53 13.14L48.53 13.14Q48.19 12.11 47.77 10.74ZM45.65 16.31L45.65 16.31L45.65 16.31Q45.12 16.18 44.77 15.87L44.77 15.87L44.77 15.87Q44.42 15.55 44.13 15.08L44.13 15.08L44.13 15.08Q44.25 14.81 44.43 14.38L44.43 14.38L44.43 14.38Q44.60 13.94 44.86 13.31L44.86 13.31L44.86 13.31Q45.11 12.67 45.46 11.78L45.46 11.78L45.46 11.78Q45.81 10.89 46.27 9.70L46.27 9.70L46.27 9.70Q46.56 8.95 46.75 8.43L46.75 8.43L46.75 8.43Q46.94 7.91 47.07 7.41L47.07 7.41L47.07 7.41Q47.21 6.92 47.33 6.31L47.33 6.31L47.33 6.31Q47.46 5.71 47.63 4.79L47.63 4.79L47.63 4.79Q48.22 4.90 48.70 5.31L48.70 5.31L48.70 5.31Q49.18 5.71 49.53 6.29L49.53 6.29L49.53 6.29Q49.38 6.48 49.17 6.88L49.17 6.88L49.17 6.88Q48.97 7.28 48.72 7.84L48.72 7.84L48.72 7.84Q48.47 8.40 48.16 9.09L48.16 9.09L48.16 9.09Q47.85 9.77 47.52 10.54L47.52 10.54L47.52 10.54Q46.76 12.22 46.33 13.62L46.33 13.62L46.33 13.62Q45.89 15.01 45.65 16.31ZM70.17 7.46L70.17 7.46L70.17 7.46Q70.17 8.13 69.87 8.73L69.87 8.73L69.87 8.73Q69.57 9.32 69.03 9.79L69.03 9.79L69.03 9.79Q68.50 10.26 67.79 10.58L67.79 10.58L67.79 10.58Q67.07 10.91 66.23 11.02L66.23 11.02L66.23 11.02Q66.44 11.65 66.74 12.31L66.74 12.31L66.74 12.31Q67.05 12.98 67.40 13.59L67.40 13.59L67.40 13.59Q67.75 14.21 68.12 14.73L68.12 14.73L68.12 14.73Q68.50 15.25 68.87 15.58L68.87 15.58L68.87 15.58Q68.80 15.72 68.66 15.86L68.66 15.86L68.66 15.86Q68.53 16.00 68.35 16.12L68.35 16.12L68.35 16.12Q68.18 16.24 67.99 16.32L67.99 16.32L67.99 16.32Q67.80 16.39 67.63 16.39L67.63 16.39L67.63 16.39Q67.33 16.39 67.05 16.10L67.05 16.10L67.05 16.10Q66.77 15.81 66.48 15.17L66.48 15.17L66.48 15.17Q66.19 14.53 65.88 13.52L65.88 13.52L65.88 13.52Q65.56 12.50 65.18 11.07L65.18 11.07L65.18 11.07Q65.03 11.07 64.88 11.07L64.88 11.07L64.88 11.07Q64.72 11.07 64.64 11.05L64.64 11.05L64.64 11.05Q64.54 10.99 64.43 10.85L64.43 10.85L64.43 10.85Q64.05 11.66 63.76 12.38L63.76 12.38L63.76 12.38Q63.46 13.09 63.23 13.76L63.23 13.76L63.23 13.76Q63.00 14.42 62.82 15.04L62.82 15.04L62.82 15.04Q62.65 15.67 62.52 16.31L62.52 16.31L62.52 16.31Q62.05 16.20 61.70 15.90L61.70 15.90L61.70 15.90Q61.35 15.61 61.04 15.08L61.04 15.08L61.04 15.08Q61.10 14.95 61.16 14.83L61.16 14.83L61.16 14.83Q61.22 14.71 61.32 14.50L61.32 14.50L61.32 14.50Q61.42 14.28 61.56 13.94L61.56 13.94L61.56 13.94Q61.71 13.61 61.96 13.05L61.96 13.05L61.96 13.05Q62.20 12.49 62.54 11.68L62.54 11.68L62.54 11.68Q62.89 10.86 63.38 9.70L63.38 9.70L63.38 9.70Q63.60 9.18 63.76 8.79L63.76 8.79L63.76 8.79Q63.92 8.40 64.05 8.04L64.05 8.04L64.05 8.04Q64.18 7.69 64.28 7.33L64.28 7.33L64.28 7.33Q64.39 6.97 64.50 6.51L64.50 6.51L64.50 6.51Q63.85 6.73 63.30 7.01L63.30 7.01L63.30 7.01Q62.75 7.28 62.38 7.59L62.38 7.59L62.38 7.59Q62.26 7.50 62.12 7.34L62.12 7.34L62.12 7.34Q61.99 7.17 61.88 6.96L61.88 6.96L61.88 6.96Q61.77 6.76 61.68 6.55L61.68 6.55L61.68 6.55Q61.60 6.34 61.59 6.17L61.59 6.17L61.59 6.17Q62.01 5.89 62.61 5.66L62.61 5.66L62.61 5.66Q63.22 5.42 63.91 5.24L63.91 5.24L63.91 5.24Q64.60 5.07 65.31 4.97L65.31 4.97L65.31 4.97Q66.02 4.87 66.64 4.87L66.64 4.87L66.64 4.87Q68.32 4.87 69.24 5.56L69.24 5.56L69.24 5.56Q70.17 6.26 70.17 7.46ZM66.58 6.02L66.75 6.29L66.75 6.29Q66.65 6.41 66.44 6.79L66.44 6.79L66.44 6.79Q66.23 7.17 65.96 7.69L65.96 7.69L65.96 7.69Q65.69 8.22 65.39 8.83L65.39 8.83L65.39 8.83Q65.09 9.45 64.81 10.05L64.81 10.05L64.81 10.05Q65.86 10.05 66.74 9.86L66.74 9.86L66.74 9.86Q67.62 9.66 68.26 9.30L68.26 9.30L68.26 9.30Q68.91 8.95 69.27 8.46L69.27 8.46L69.27 8.46Q69.62 7.98 69.62 7.39L69.62 7.39L69.62 7.39Q69.62 6.69 69.12 6.32L69.12 6.32L69.12 6.32Q68.61 5.95 67.56 5.95L67.56 5.95L67.56 5.95Q67.33 5.95 67.09 5.97L67.09 5.97L67.09 5.97Q66.85 5.99 66.58 6.02L66.58 6.02ZM83.66 4.98L83.66 4.98L83.66 4.98Q83.93 5.10 84.21 5.27L84.21 5.27L84.21 5.27Q84.49 5.45 84.73 5.63L84.73 5.63L84.73 5.63Q84.97 5.81 85.13 5.98L85.13 5.98L85.13 5.98Q85.29 6.16 85.30 6.27L85.30 6.27L85.30 6.27Q85.06 6.22 84.83 6.20L84.83 6.20L84.83 6.20Q84.59 6.17 84.39 6.17L84.39 6.17L84.39 6.17Q83.76 6.17 83.14 6.48L83.14 6.48L83.14 6.48Q82.52 6.79 81.96 7.32L81.96 7.32L81.96 7.32Q81.40 7.85 80.92 8.57L80.92 8.57L80.92 8.57Q80.44 9.28 80.10 10.09L80.10 10.09L80.10 10.09Q79.76 10.91 79.56 11.77L79.56 11.77L79.56 11.77Q79.37 12.64 79.37 13.48L79.37 13.48L79.37 13.48Q79.37 14.57 79.73 15.11L79.73 15.11L79.73 15.11Q80.09 15.64 80.79 15.64L80.79 15.64L80.79 15.64Q81.13 15.64 81.52 15.51L81.52 15.51L81.52 15.51Q81.91 15.37 82.32 15.13L82.32 15.13L82.32 15.13Q82.73 14.90 83.12 14.56L83.12 14.56L83.12 14.56Q83.51 14.22 83.85 13.82L83.85 13.82L83.85 13.82Q84.34 13.23 84.73 12.48L84.73 12.48L84.73 12.48Q85.12 11.73 85.39 10.89L85.39 10.89L85.39 10.89Q85.67 10.05 85.81 9.16L85.81 9.16L85.81 9.16Q85.96 8.27 85.96 7.42L85.96 7.42L85.96 7.42Q85.96 7.08 85.95 6.85L85.95 6.85L85.95 6.85Q85.93 6.62 85.91 6.46L85.91 6.46L85.91 6.46Q85.89 6.30 85.88 6.20L85.88 6.20L85.88 6.20Q85.86 6.10 85.85 6.03L85.85 6.03L85.85 6.03Q86.02 6.12 86.22 6.24L86.22 6.24L86.22 6.24Q86.42 6.36 86.60 6.59L86.60 6.59L86.60 6.59Q86.77 6.82 86.89 7.20L86.89 7.20L86.89 7.20Q87.01 7.57 87.01 8.18L87.01 8.18L87.01 8.18Q87.01 9.16 86.78 10.10L86.78 10.10L86.78 10.10Q86.55 11.05 86.13 11.90L86.13 11.90L86.13 11.90Q85.72 12.75 85.16 13.50L85.16 13.50L85.16 13.50Q84.60 14.24 83.96 14.80L83.96 14.80L83.96 14.80Q83.12 15.54 82.17 15.95L82.17 15.95L82.17 15.95Q81.21 16.35 80.33 16.35L80.33 16.35L80.33 16.35Q79.04 16.35 78.36 15.53L78.36 15.53L78.36 15.53Q77.69 14.71 77.69 13.12L77.69 13.12L77.69 13.12Q77.69 12.26 77.87 11.31L77.87 11.31L77.87 11.31Q78.06 10.36 78.41 9.44L78.41 9.44L78.41 9.44Q78.75 8.51 79.23 7.68L79.23 7.68L79.23 7.68Q79.70 6.85 80.27 6.21L80.27 6.21L80.27 6.21Q80.84 5.57 81.49 5.19L81.49 5.19L81.49 5.19Q82.14 4.82 82.82 4.82L82.82 4.82L82.82 4.82Q83.05 4.82 83.24 4.85L83.24 4.85L83.24 4.85Q83.44 4.89 83.66 4.98ZM86.80 2.81L86.80 2.81L86.80 2.81Q87.09 2.90 87.35 3.18L87.35 3.18L87.35 3.18Q87.61 3.46 87.61 3.71L87.61 3.71L87.61 3.71Q87.08 3.93 86.68 4.08L86.68 4.08L86.68 4.08Q86.28 4.23 85.97 4.32L85.97 4.32L85.97 4.32Q85.65 4.41 85.41 4.45L85.41 4.45L85.41 4.45Q85.18 4.48 84.95 4.48L84.95 4.48L84.95 4.48Q84.50 4.48 84.18 4.21L84.18 4.21L84.18 4.21Q84.81 4.07 85.51 3.70L85.51 3.70L85.51 3.70Q86.21 3.33 86.80 2.81ZM99.54 14.38L99.54 14.38L99.54 14.38Q99.89 14.98 99.89 15.54L99.89 15.54L99.89 15.54Q99.89 15.67 99.87 15.77L99.87 15.77L99.87 15.77Q99.85 15.88 99.82 15.99L99.82 15.99L99.82 15.99Q99.58 15.96 99.32 15.95L99.32 15.95L99.32 15.95Q99.06 15.93 98.78 15.93L98.78 15.93L98.78 15.93Q98.45 15.93 98.10 15.95L98.10 15.95L98.10 15.95Q97.76 15.97 97.34 16.02L97.34 16.02L97.34 16.02Q96.92 16.06 96.40 16.13L96.40 16.13L96.40 16.13Q95.89 16.20 95.20 16.31L95.20 16.31L95.20 16.31Q94.88 16.20 94.56 15.87L94.56 15.87L94.56 15.87Q94.23 15.54 93.95 15.08L93.95 15.08L93.95 15.08Q94.09 14.77 94.30 14.31L94.30 14.31L94.30 14.31Q94.51 13.86 94.79 13.21L94.79 13.21L94.79 13.21Q95.07 12.56 95.42 11.68L95.42 11.68L95.42 11.68Q95.76 10.81 96.15 9.66L96.15 9.66L96.15 9.66Q96.40 8.90 96.59 8.33L96.59 8.33L96.59 8.33Q96.77 7.76 96.91 7.22L96.91 7.22L96.91 7.22Q97.06 6.68 97.20 6.09L97.20 6.09L97.20 6.09Q97.34 5.50 97.51 4.73L97.51 4.73L97.51 4.73Q98.07 4.84 98.48 5.14L98.48 5.14L98.48 5.14Q98.90 5.45 99.27 6.01L99.27 6.01L99.27 6.01Q99.16 6.19 98.98 6.59L98.98 6.59L98.98 6.59Q98.80 7 98.55 7.58L98.55 7.58L98.55 7.58Q98.31 8.16 98.01 8.90L98.01 8.90L98.01 8.90Q97.72 9.63 97.40 10.47L97.40 10.47L97.40 10.47Q97.09 11.30 96.80 12.03L96.80 12.03L96.80 12.03Q96.50 12.75 96.27 13.34L96.27 13.34L96.27 13.34Q96.04 13.93 95.90 14.35L95.90 14.35L95.90 14.35Q95.76 14.77 95.76 14.98L95.76 14.98L95.76 14.98Q95.98 14.97 96.17 14.95L96.17 14.95L96.17 14.95Q96.35 14.94 96.54 14.90L96.54 14.90L96.54 14.90Q96.74 14.87 96.97 14.82L96.97 14.82L96.97 14.82Q97.20 14.77 97.52 14.69L97.52 14.69L97.52 14.69Q97.80 14.62 98.04 14.57L98.04 14.57L98.04 14.57Q98.28 14.52 98.51 14.48L98.51 14.48L98.51 14.48Q98.74 14.45 98.99 14.43L98.99 14.43L98.99 14.43Q99.23 14.41 99.54 14.38ZM108.96 16.24L108.96 16.24L108.96 16.24Q108.29 16.04 108.03 15.85L108.03 15.85L108.03 15.85Q107.77 15.65 107.77 15.36L107.77 15.36L107.77 15.36Q107.77 15.13 107.90 14.73L107.90 14.73L107.90 14.73Q108.02 14.32 108.27 13.77L108.27 13.77L108.27 13.77Q108.51 13.22 108.86 12.54L108.86 12.54L108.86 12.54Q109.20 11.87 109.63 11.10L109.63 11.10L109.63 11.10Q109.27 11.09 108.98 11.08L108.98 11.08L108.98 11.08Q108.70 11.07 108.51 11.07L108.51 11.07L108.51 11.07Q108.60 10.86 108.99 10.71L108.99 10.71L108.99 10.71Q109.38 10.56 110.03 10.44L110.03 10.44L110.03 10.44Q110.57 9.53 111.19 8.71L111.19 8.71L111.19 8.71Q111.82 7.88 112.45 7.19L112.45 7.19L112.45 7.19Q113.08 6.50 113.71 5.97L113.71 5.97L113.71 5.97Q114.34 5.45 114.91 5.14L114.91 5.14L114.91 5.14Q114.93 5.04 114.93 4.97L114.93 4.97L114.93 4.97Q114.94 4.90 114.94 4.87L114.94 4.87L114.94 4.87Q115.14 4.87 115.46 4.97L115.46 4.97L115.46 4.97Q115.79 5.07 116.11 5.21L116.11 5.21L116.11 5.21Q116.42 5.35 116.67 5.49L116.67 5.49L116.67 5.49Q116.91 5.64 116.94 5.74L116.94 5.74L116.94 5.74Q116.48 6.55 116.03 8.17L116.03 8.17L116.03 8.17Q115.58 9.79 115.29 12.04L115.29 12.04L115.29 12.04Q115.22 12.60 115.17 13.31L115.17 13.31L115.17 13.31Q115.12 14.03 115.12 14.91L115.12 14.91L115.12 14.91Q115.12 15.22 115.12 15.54L115.12 15.54L115.12 15.54Q115.12 15.86 115.15 16.21L115.15 16.21L115.15 16.21Q115.12 16.23 115.09 16.23L115.09 16.23L115.09 16.23Q115.07 16.23 114.98 16.23L114.98 16.23L114.98 16.23Q114.79 16.23 114.53 16.16L114.53 16.16L114.53 16.16Q114.27 16.10 114.02 16.01L114.02 16.01L114.02 16.01Q113.78 15.92 113.60 15.81L113.60 15.81L113.60 15.81Q113.43 15.69 113.39 15.61L113.39 15.61L113.39 15.61Q113.37 15.43 113.37 15.25L113.37 15.25L113.37 15.25Q113.37 15.08 113.37 14.88L113.37 14.88L113.37 14.88Q113.37 14.01 113.43 13.12L113.43 13.12L113.43 13.12Q113.50 12.22 113.65 11.27L113.65 11.27L113.65 11.27Q113.46 11.26 113.13 11.23L113.13 11.23L113.13 11.23Q112.81 11.21 112.41 11.20L112.41 11.20L112.41 11.20Q112.01 11.19 111.56 11.16L111.56 11.16L111.56 11.16Q111.10 11.14 110.67 11.13L110.67 11.13L110.67 11.13Q110.33 11.76 110.04 12.38L110.04 12.38L110.04 12.38Q109.75 13.01 109.54 13.64L109.54 13.64L109.54 13.64Q109.30 14.31 109.15 14.98L109.15 14.98L109.15 14.98Q109.00 15.65 108.96 16.24ZM114.37 7.83L114.37 7.83L114.37 7.83Q114.42 7.63 114.50 7.29L114.50 7.29L114.50 7.29Q114.58 6.94 114.65 6.57L114.65 6.57L114.65 6.57Q114.30 6.69 113.87 7.03L113.87 7.03L113.87 7.03Q113.44 7.36 112.99 7.86L112.99 7.86L112.99 7.86Q112.53 8.36 112.06 8.98L112.06 8.98L112.06 8.98Q111.59 9.60 111.16 10.30L111.16 10.30L111.16 10.30Q112.34 10.21 113.83 10.18L113.83 10.18L113.83 10.18Q113.95 9.59 114.08 9.01L114.08 9.01L114.08 9.01Q114.21 8.43 114.37 7.83ZM143.78 5.74L143.78 5.74L143.78 5.74Q143.82 5.98 143.84 6.07L143.84 6.07L143.84 6.07Q143.86 6.16 143.86 6.31L143.86 6.31L143.86 6.31Q143.86 6.78 143.66 7.18L143.66 7.18L143.66 7.18Q143.46 7.57 143.11 7.74L143.11 7.74L143.11 7.74Q142.83 7.36 142.42 7.09L142.42 7.09L142.42 7.09Q142.02 6.82 141.53 6.64L141.53 6.64L141.53 6.64Q141.05 6.47 140.53 6.38L140.53 6.38L140.53 6.38Q140.01 6.30 139.52 6.30L139.52 6.30L139.52 6.30Q139.03 6.30 138.61 6.38L138.61 6.38L138.61 6.38Q138.18 6.45 137.85 6.59L137.85 6.59L137.85 6.59Q137.52 6.72 137.33 6.92L137.33 6.92L137.33 6.92Q137.14 7.11 137.14 7.36L137.14 7.36L137.14 7.36Q137.19 7.67 137.52 7.99L137.52 7.99L137.52 7.99Q137.86 8.30 138.35 8.60L138.35 8.60L138.35 8.60Q138.84 8.90 139.43 9.20L139.43 9.20L139.43 9.20Q140.03 9.49 140.60 9.76L140.60 9.76L140.60 9.76Q141.32 10.09 141.83 10.38L141.83 10.38L141.83 10.38Q142.35 10.67 142.69 11.01L142.69 11.01L142.69 11.01Q143.02 11.35 143.19 11.79L143.19 11.79L143.19 11.79Q143.36 12.22 143.36 12.84L143.36 12.84L143.36 12.84Q143.36 13.55 143.12 14.18L143.12 14.18L143.12 14.18Q142.88 14.80 142.43 15.26L142.43 15.26L142.43 15.26Q141.97 15.72 141.33 15.98L141.33 15.98L141.33 15.98Q140.69 16.24 139.89 16.24L139.89 16.24L139.89 16.24Q139.10 16.24 138.19 16.00L138.19 16.00L138.19 16.00Q137.28 15.76 136.49 15.35L136.49 15.35L136.49 15.35Q135.70 14.94 135.18 14.40L135.18 14.40L135.18 14.40Q134.65 13.86 134.65 13.26L134.65 13.26L134.65 13.26Q134.65 12.98 134.81 12.54L134.81 12.54L134.81 12.54Q134.97 12.11 135.39 11.63L135.39 11.63L135.39 11.63Q135.44 12.05 135.85 12.63L135.85 12.63L135.85 12.63Q136.26 13.20 137.09 13.69L137.09 13.69L137.09 13.69Q137.86 14.14 138.68 14.34L138.68 14.34L138.68 14.34Q139.50 14.55 140.21 14.55L140.21 14.55L140.21 14.55Q140.99 14.55 141.48 14.35L141.48 14.35L141.48 14.35Q141.97 14.15 142.25 13.88L142.25 13.88L142.25 13.88Q142.53 13.61 142.65 13.33L142.65 13.33L142.65 13.33Q142.76 13.05 142.77 12.88L142.77 12.88L142.77 12.88Q142.76 12.60 142.51 12.34L142.51 12.34L142.51 12.34Q142.27 12.08 141.85 11.84L141.85 11.84L141.85 11.84Q141.44 11.59 140.90 11.34L140.90 11.34L140.90 11.34Q140.35 11.09 139.76 10.84L139.76 10.84L139.76 10.84Q138.88 10.44 138.24 10.10L138.24 10.10L138.24 10.10Q137.61 9.76 137.19 9.40L137.19 9.40L137.19 9.40Q136.78 9.04 136.59 8.65L136.59 8.65L136.59 8.65Q136.40 8.26 136.40 7.76L136.40 7.76L136.40 7.76Q136.40 6.97 136.88 6.27L136.88 6.27L136.88 6.27Q137.35 5.57 138.25 5.21L138.25 5.21L138.25 5.21Q138.70 5.01 139.21 4.93L139.21 4.93L139.21 4.93Q139.72 4.84 140.21 4.84L140.21 4.84L140.21 4.84Q141.13 4.84 142.02 5.10L142.02 5.10L142.02 5.10Q142.90 5.35 143.78 5.74ZM152.11 16.24L152.11 16.24L152.11 16.24Q151.44 16.04 151.18 15.85L151.18 15.85L151.18 15.85Q150.92 15.65 150.92 15.36L150.92 15.36L150.92 15.36Q150.92 15.13 151.05 14.73L151.05 14.73L151.05 14.73Q151.17 14.32 151.42 13.77L151.42 13.77L151.42 13.77Q151.66 13.22 152.00 12.54L152.00 12.54L152.00 12.54Q152.35 11.87 152.78 11.10L152.78 11.10L152.78 11.10Q152.42 11.09 152.13 11.08L152.13 11.08L152.13 11.08Q151.84 11.07 151.66 11.07L151.66 11.07L151.66 11.07Q151.75 10.86 152.14 10.71L152.14 10.71L152.14 10.71Q152.53 10.56 153.17 10.44L153.17 10.44L153.17 10.44Q153.72 9.53 154.34 8.71L154.34 8.71L154.34 8.71Q154.97 7.88 155.60 7.19L155.60 7.19L155.60 7.19Q156.23 6.50 156.86 5.97L156.86 5.97L156.86 5.97Q157.49 5.45 158.06 5.14L158.06 5.14L158.06 5.14Q158.07 5.04 158.08 4.97L158.08 4.97L158.08 4.97Q158.09 4.90 158.09 4.87L158.09 4.87L158.09 4.87Q158.28 4.87 158.61 4.97L158.61 4.97L158.61 4.97Q158.94 5.07 159.26 5.21L159.26 5.21L159.26 5.21Q159.57 5.35 159.82 5.49L159.82 5.49L159.82 5.49Q160.06 5.64 160.09 5.74L160.09 5.74L160.09 5.74Q159.63 6.55 159.18 8.17L159.18 8.17L159.18 8.17Q158.73 9.79 158.44 12.04L158.44 12.04L158.44 12.04Q158.37 12.60 158.32 13.31L158.32 13.31L158.32 13.31Q158.27 14.03 158.27 14.91L158.27 14.91L158.27 14.91Q158.27 15.22 158.27 15.54L158.27 15.54L158.27 15.54Q158.27 15.86 158.30 16.21L158.30 16.21L158.30 16.21Q158.27 16.23 158.24 16.23L158.24 16.23L158.24 16.23Q158.21 16.23 158.13 16.23L158.13 16.23L158.13 16.23Q157.93 16.23 157.68 16.16L157.68 16.16L157.68 16.16Q157.42 16.10 157.17 16.01L157.17 16.01L157.17 16.01Q156.93 15.92 156.75 15.81L156.75 15.81L156.75 15.81Q156.58 15.69 156.53 15.61L156.53 15.61L156.53 15.61Q156.52 15.43 156.52 15.25L156.52 15.25L156.52 15.25Q156.52 15.08 156.52 14.88L156.52 14.88L156.52 14.88Q156.52 14.01 156.58 13.12L156.58 13.12L156.58 13.12Q156.65 12.22 156.80 11.27L156.80 11.27L156.80 11.27Q156.60 11.26 156.28 11.23L156.28 11.23L156.28 11.23Q155.96 11.21 155.56 11.20L155.56 11.20L155.56 11.20Q155.16 11.19 154.71 11.16L154.71 11.16L154.71 11.16Q154.25 11.14 153.82 11.13L153.82 11.13L153.82 11.13Q153.48 11.76 153.19 12.38L153.19 12.38L153.19 12.38Q152.89 13.01 152.68 13.64L152.68 13.64L152.68 13.64Q152.45 14.31 152.30 14.98L152.30 14.98L152.30 14.98Q152.15 15.65 152.11 16.24ZM157.51 7.83L157.51 7.83L157.51 7.83Q157.57 7.63 157.65 7.29L157.65 7.29L157.65 7.29Q157.72 6.94 157.79 6.57L157.79 6.57L157.79 6.57Q157.44 6.69 157.02 7.03L157.02 7.03L157.02 7.03Q156.59 7.36 156.13 7.86L156.13 7.86L156.13 7.86Q155.68 8.36 155.21 8.98L155.21 8.98L155.21 8.98Q154.74 9.60 154.31 10.30L154.31 10.30L154.31 10.30Q155.48 10.21 156.98 10.18L156.98 10.18L156.98 10.18Q157.09 9.59 157.23 9.01L157.23 9.01L157.23 9.01Q157.36 8.43 157.51 7.83ZM168.10 16.24L168.10 16.24L168.10 16.24Q167.43 16.04 167.17 15.85L167.17 15.85L167.17 15.85Q166.91 15.65 166.91 15.36L166.91 15.36L166.91 15.36Q166.91 15.13 167.03 14.73L167.03 14.73L167.03 14.73Q167.16 14.32 167.41 13.77L167.41 13.77L167.41 13.77Q167.65 13.22 167.99 12.54L167.99 12.54L167.99 12.54Q168.34 11.87 168.77 11.10L168.77 11.10L168.77 11.10Q168.41 11.09 168.12 11.08L168.12 11.08L168.12 11.08Q167.83 11.07 167.65 11.07L167.65 11.07L167.65 11.07Q167.73 10.86 168.13 10.71L168.13 10.71L168.13 10.71Q168.52 10.56 169.16 10.44L169.16 10.44L169.16 10.44Q169.71 9.53 170.33 8.71L170.33 8.71L170.33 8.71Q170.95 7.88 171.58 7.19L171.58 7.19L171.58 7.19Q172.21 6.50 172.84 5.97L172.84 5.97L172.84 5.97Q173.47 5.45 174.05 5.14L174.05 5.14L174.05 5.14Q174.06 5.04 174.07 4.97L174.07 4.97L174.07 4.97Q174.08 4.90 174.08 4.87L174.08 4.87L174.08 4.87Q174.27 4.87 174.60 4.97L174.60 4.97L174.60 4.97Q174.93 5.07 175.25 5.21L175.25 5.21L175.25 5.21Q175.56 5.35 175.81 5.49L175.81 5.49L175.81 5.49Q176.05 5.64 176.08 5.74L176.08 5.74L176.08 5.74Q175.62 6.55 175.17 8.17L175.17 8.17L175.17 8.17Q174.72 9.79 174.43 12.04L174.43 12.04L174.43 12.04Q174.36 12.60 174.31 13.31L174.31 13.31L174.31 13.31Q174.26 14.03 174.26 14.91L174.26 14.91L174.26 14.91Q174.26 15.22 174.26 15.54L174.26 15.54L174.26 15.54Q174.26 15.86 174.29 16.21L174.29 16.21L174.29 16.21Q174.26 16.23 174.23 16.23L174.23 16.23L174.23 16.23Q174.20 16.23 174.12 16.23L174.12 16.23L174.12 16.23Q173.92 16.23 173.66 16.16L173.66 16.16L173.66 16.16Q173.40 16.10 173.16 16.01L173.16 16.01L173.16 16.01Q172.91 15.92 172.74 15.81L172.74 15.81L172.74 15.81Q172.56 15.69 172.52 15.61L172.52 15.61L172.52 15.61Q172.51 15.43 172.51 15.25L172.51 15.25L172.51 15.25Q172.51 15.08 172.51 14.88L172.51 14.88L172.51 14.88Q172.51 14.01 172.57 13.12L172.57 13.12L172.57 13.12Q172.63 12.22 172.79 11.27L172.79 11.27L172.79 11.27Q172.59 11.26 172.27 11.23L172.27 11.23L172.27 11.23Q171.95 11.21 171.55 11.20L171.55 11.20L171.55 11.20Q171.15 11.19 170.69 11.16L170.69 11.16L170.69 11.16Q170.24 11.14 169.81 11.13L169.81 11.13L169.81 11.13Q169.47 11.76 169.18 12.38L169.18 12.38L169.18 12.38Q168.88 13.01 168.67 13.64L168.67 13.64L168.67 13.64Q168.43 14.31 168.29 14.98L168.29 14.98L168.29 14.98Q168.14 15.65 168.10 16.24ZM173.50 7.83L173.50 7.83L173.50 7.83Q173.56 7.63 173.63 7.29L173.63 7.29L173.63 7.29Q173.71 6.94 173.78 6.57L173.78 6.57L173.78 6.57Q173.43 6.69 173.00 7.03L173.00 7.03L173.00 7.03Q172.58 7.36 172.12 7.86L172.12 7.86L172.12 7.86Q171.67 8.36 171.20 8.98L171.20 8.98L171.20 8.98Q170.73 9.60 170.30 10.30L170.30 10.30L170.30 10.30Q171.47 10.21 172.97 10.18L172.97 10.18L172.97 10.18Q173.08 9.59 173.22 9.01L173.22 9.01L173.22 9.01Q173.35 8.43 173.50 7.83ZM192.49 5.74L192.49 5.74L192.49 5.74Q192.53 5.98 192.55 6.07L192.55 6.07L192.55 6.07Q192.57 6.16 192.57 6.31L192.57 6.31L192.57 6.31Q192.57 6.78 192.37 7.18L192.37 7.18L192.37 7.18Q192.16 7.57 191.81 7.74L191.81 7.74L191.81 7.74Q191.53 7.36 191.13 7.09L191.13 7.09L191.13 7.09Q190.72 6.82 190.24 6.64L190.24 6.64L190.24 6.64Q189.76 6.47 189.24 6.38L189.24 6.38L189.24 6.38Q188.72 6.30 188.23 6.30L188.23 6.30L188.23 6.30Q187.74 6.30 187.31 6.38L187.31 6.38L187.31 6.38Q186.89 6.45 186.56 6.59L186.56 6.59L186.56 6.59Q186.23 6.72 186.04 6.92L186.04 6.92L186.04 6.92Q185.85 7.11 185.85 7.36L185.85 7.36L185.85 7.36Q185.89 7.67 186.23 7.99L186.23 7.99L186.23 7.99Q186.56 8.30 187.05 8.60L187.05 8.60L187.05 8.60Q187.54 8.90 188.14 9.20L188.14 9.20L188.14 9.20Q188.73 9.49 189.31 9.76L189.31 9.76L189.31 9.76Q190.02 10.09 190.54 10.38L190.54 10.38L190.54 10.38Q191.06 10.67 191.39 11.01L191.39 11.01L191.39 11.01Q191.73 11.35 191.90 11.79L191.90 11.79L191.90 11.79Q192.07 12.22 192.07 12.84L192.07 12.84L192.07 12.84Q192.07 13.55 191.83 14.18L191.83 14.18L191.83 14.18Q191.59 14.80 191.13 15.26L191.13 15.26L191.13 15.26Q190.68 15.72 190.04 15.98L190.04 15.98L190.04 15.98Q189.39 16.24 188.59 16.24L188.59 16.24L188.59 16.24Q187.81 16.24 186.90 16.00L186.90 16.00L186.90 16.00Q185.99 15.76 185.20 15.35L185.20 15.35L185.20 15.35Q184.41 14.94 183.88 14.40L183.88 14.40L183.88 14.40Q183.36 13.86 183.36 13.26L183.36 13.26L183.36 13.26Q183.36 12.98 183.52 12.54L183.52 12.54L183.52 12.54Q183.68 12.11 184.10 11.63L184.10 11.63L184.10 11.63Q184.14 12.05 184.55 12.63L184.55 12.63L184.55 12.63Q184.97 13.20 185.79 13.69L185.79 13.69L185.79 13.69Q186.56 14.14 187.38 14.34L187.38 14.34L187.38 14.34Q188.20 14.55 188.92 14.55L188.92 14.55L188.92 14.55Q189.70 14.55 190.19 14.35L190.19 14.35L190.19 14.35Q190.68 14.15 190.96 13.88L190.96 13.88L190.96 13.88Q191.24 13.61 191.35 13.33L191.35 13.33L191.35 13.33Q191.46 13.05 191.48 12.88L191.48 12.88L191.48 12.88Q191.46 12.60 191.22 12.34L191.22 12.34L191.22 12.34Q190.97 12.08 190.56 11.84L190.56 11.84L190.56 11.84Q190.15 11.59 189.60 11.34L189.60 11.34L189.60 11.34Q189.06 11.09 188.47 10.84L188.47 10.84L188.47 10.84Q187.59 10.44 186.95 10.10L186.95 10.10L186.95 10.10Q186.31 9.76 185.90 9.40L185.90 9.40L185.90 9.40Q185.49 9.04 185.30 8.65L185.30 8.65L185.30 8.65Q185.11 8.26 185.11 7.76L185.11 7.76L185.11 7.76Q185.11 6.97 185.58 6.27L185.58 6.27L185.58 6.27Q186.06 5.57 186.96 5.21L186.96 5.21L186.96 5.21Q187.40 5.01 187.91 4.93L187.91 4.93L187.91 4.93Q188.43 4.84 188.92 4.84L188.92 4.84L188.92 4.84Q189.84 4.84 190.72 5.10L190.72 5.10L190.72 5.10Q191.60 5.35 192.49 5.74ZM201.63 12.57L201.63 12.57L201.63 12.57Q201.19 12.57 200.94 12.33L200.94 12.33L200.94 12.33Q200.68 12.08 200.68 11.65L200.68 11.65L200.68 11.65Q200.68 11.58 200.70 11.44L200.70 11.44L200.70 11.44Q200.73 11.30 200.76 11.23L200.76 11.23L200.76 11.23Q201.00 11.27 201.21 11.28L201.21 11.28L201.21 11.28Q201.42 11.28 201.75 11.28L201.75 11.28L201.75 11.28Q202.47 11.28 203.09 11.24L203.09 11.24L203.09 11.24Q203.71 11.20 204.22 11.14L204.22 11.14L204.22 11.14Q204.72 11.09 205.09 11.05L205.09 11.05L205.09 11.05Q205.45 11.00 205.65 11.00L205.65 11.00L205.65 11.00Q205.91 11.00 206.11 11.33L206.11 11.33L206.11 11.33Q206.32 11.65 206.42 12.25L206.42 12.25L206.42 12.25Q206.07 12.21 205.84 12.19L205.84 12.19L205.84 12.19Q205.62 12.18 205.45 12.18L205.45 12.18L205.45 12.18Q204.85 12.18 204.33 12.24L204.33 12.24L204.33 12.24Q203.81 12.31 203.35 12.38L203.35 12.38L203.35 12.38Q202.89 12.45 202.47 12.51L202.47 12.51L202.47 12.51Q202.05 12.57 201.63 12.57ZM215.18 16.24L215.18 16.24L215.18 16.24Q214.51 16.04 214.25 15.85L214.25 15.85L214.25 15.85Q213.99 15.65 213.99 15.36L213.99 15.36L213.99 15.36Q213.99 15.13 214.12 14.73L214.12 14.73L214.12 14.73Q214.24 14.32 214.49 13.77L214.49 13.77L214.49 13.77Q214.73 13.22 215.07 12.54L215.07 12.54L215.07 12.54Q215.42 11.87 215.85 11.10L215.85 11.10L215.85 11.10Q215.49 11.09 215.20 11.08L215.20 11.08L215.20 11.08Q214.91 11.07 214.73 11.07L214.73 11.07L214.73 11.07Q214.82 10.86 215.21 10.71L215.21 10.71L215.21 10.71Q215.60 10.56 216.24 10.44L216.24 10.44L216.24 10.44Q216.79 9.53 217.41 8.71L217.41 8.71L217.41 8.71Q218.04 7.88 218.67 7.19L218.67 7.19L218.67 7.19Q219.30 6.50 219.93 5.97L219.93 5.97L219.93 5.97Q220.56 5.45 221.13 5.14L221.13 5.14L221.13 5.14Q221.14 5.04 221.15 4.97L221.15 4.97L221.15 4.97Q221.16 4.90 221.16 4.87L221.16 4.87L221.16 4.87Q221.35 4.87 221.68 4.97L221.68 4.97L221.68 4.97Q222.01 5.07 222.33 5.21L222.33 5.21L222.33 5.21Q222.64 5.35 222.89 5.49L222.89 5.49L222.89 5.49Q223.13 5.64 223.16 5.74L223.16 5.74L223.16 5.74Q222.70 6.55 222.25 8.17L222.25 8.17L222.25 8.17Q221.80 9.79 221.51 12.04L221.51 12.04L221.51 12.04Q221.44 12.60 221.39 13.31L221.39 13.31L221.39 13.31Q221.34 14.03 221.34 14.91L221.34 14.91L221.34 14.91Q221.34 15.22 221.34 15.54L221.34 15.54L221.34 15.54Q221.34 15.86 221.37 16.21L221.37 16.21L221.37 16.21Q221.34 16.23 221.31 16.23L221.31 16.23L221.31 16.23Q221.28 16.23 221.20 16.23L221.20 16.23L221.20 16.23Q221.00 16.23 220.75 16.16L220.75 16.16L220.75 16.16Q220.49 16.10 220.24 16.01L220.24 16.01L220.24 16.01Q220.00 15.92 219.82 15.81L219.82 15.81L219.82 15.81Q219.65 15.69 219.60 15.61L219.60 15.61L219.60 15.61Q219.59 15.43 219.59 15.25L219.59 15.25L219.59 15.25Q219.59 15.08 219.59 14.88L219.59 14.88L219.59 14.88Q219.59 14.01 219.65 13.12L219.65 13.12L219.65 13.12Q219.72 12.22 219.87 11.27L219.87 11.27L219.87 11.27Q219.67 11.26 219.35 11.23L219.35 11.23L219.35 11.23Q219.03 11.21 218.63 11.20L218.63 11.20L218.63 11.20Q218.23 11.19 217.78 11.16L217.78 11.16L217.78 11.16Q217.32 11.14 216.89 11.13L216.89 11.13L216.89 11.13Q216.55 11.76 216.26 12.38L216.26 12.38L216.26 12.38Q215.96 13.01 215.75 13.64L215.75 13.64L215.75 13.64Q215.52 14.31 215.37 14.98L215.37 14.98L215.37 14.98Q215.22 15.65 215.18 16.24ZM220.58 7.83L220.58 7.83L220.58 7.83Q220.64 7.63 220.72 7.29L220.72 7.29L220.72 7.29Q220.79 6.94 220.86 6.57L220.86 6.57L220.86 6.57Q220.51 6.69 220.09 7.03L220.09 7.03L220.09 7.03Q219.66 7.36 219.20 7.86L219.20 7.86L219.20 7.86Q218.75 8.36 218.28 8.98L218.28 8.98L218.28 8.98Q217.81 9.60 217.38 10.30L217.38 10.30L217.38 10.30Q218.55 10.21 220.05 10.18L220.05 10.18L220.05 10.18Q220.16 9.59 220.30 9.01L220.30 9.01L220.30 9.01Q220.43 8.43 220.58 7.83ZM246.12 4.83L246.12 4.83L246.12 4.83Q246.65 4.83 247.23 5.03L247.23 5.03L247.23 5.03Q247.80 5.22 248.23 5.53L248.23 5.53L248.23 5.53Q248.09 6.24 247.97 6.82L247.97 6.82L247.97 6.82Q247.86 7.39 247.76 7.86L247.76 7.86L247.76 7.86Q247.66 8.33 247.57 8.71L247.57 8.71L247.57 8.71Q247.48 9.10 247.39 9.44L247.39 9.44L247.39 9.44Q247.06 10.70 246.70 11.71L246.70 11.71L246.70 11.71Q246.34 12.73 245.94 13.54L245.94 13.54L245.94 13.54Q245.55 14.35 245.10 14.98L245.10 14.98L245.10 14.98Q244.66 15.61 244.16 16.09L244.16 16.09L244.16 16.09Q243.67 16.55 243.18 16.84L243.18 16.84L243.18 16.84Q242.69 17.14 242.27 17.22L242.27 17.22L242.27 17.22Q241.71 17.22 241.23 17.09L241.23 17.09L241.23 17.09Q240.76 16.97 240.41 16.75L240.41 16.75L240.41 16.75Q240.07 16.53 239.88 16.23L239.88 16.23L239.88 16.23Q239.69 15.93 239.69 15.57L239.69 15.57L239.69 15.57Q239.69 15.18 239.89 14.58L239.89 14.58L239.89 14.58Q240.09 13.99 240.49 13.17L240.49 13.17L240.49 13.17Q240.66 13.19 240.88 13.26L240.88 13.26L240.88 13.26Q241.11 13.33 241.33 13.43L241.33 13.43L241.33 13.43Q241.56 13.52 241.74 13.64L241.74 13.64L241.74 13.64Q241.92 13.76 242.00 13.87L242.00 13.87L242.00 13.87Q241.56 14.34 241.28 14.89L241.28 14.89L241.28 14.89Q241.00 15.44 241.00 15.85L241.00 15.85L241.00 15.85Q241.00 16.09 241.09 16.27L241.09 16.27L241.09 16.27Q241.18 16.46 241.40 16.62L241.40 16.62L241.40 16.62Q242.26 16.30 243.07 15.42L243.07 15.42L243.07 15.42Q243.88 14.55 244.51 13.24L244.51 13.24L244.51 13.24Q244.89 12.47 245.20 11.48L245.20 11.48L245.20 11.48Q245.50 10.49 245.72 9.48L245.72 9.48L245.72 9.48Q245.94 8.48 246.06 7.57L246.06 7.57L246.06 7.57Q246.18 6.65 246.18 6.02L246.18 6.02L246.18 6.02Q246.18 5.92 246.17 5.75L246.17 5.75L246.17 5.75Q246.16 5.57 246.16 5.38L246.16 5.38L246.16 5.38Q246.15 5.19 246.13 5.04L246.13 5.04L246.13 5.04Q246.12 4.89 246.12 4.83ZM260.82 9.21L260.82 9.21L260.82 9.21Q261.28 9.21 261.54 9.46L261.54 9.46L261.54 9.46Q261.80 9.72 261.80 10.16L261.80 10.16L261.80 10.16Q261.80 10.28 261.78 10.39L261.78 10.39L261.78 10.39Q261.76 10.51 261.73 10.60L261.73 10.60L261.73 10.60Q261.55 10.57 261.32 10.55L261.32 10.55L261.32 10.55Q261.10 10.53 260.79 10.53L260.79 10.53L260.79 10.53Q260.19 10.53 259.57 10.63L259.57 10.63L259.57 10.63Q258.96 10.74 258.40 10.81L258.40 10.81L258.40 10.81Q258.08 11.55 257.81 12.24L257.81 12.24L257.81 12.24Q257.54 12.94 257.36 13.51L257.36 13.51L257.36 13.51Q257.17 14.08 257.06 14.50L257.06 14.50L257.06 14.50Q256.96 14.92 256.94 15.13L256.94 15.13L256.94 15.13Q258.08 14.90 259.23 14.73L259.23 14.73L259.23 14.73Q260.39 14.56 261.66 14.48L261.66 14.48L261.66 14.48Q261.81 14.71 261.92 14.99L261.92 14.99L261.92 14.99Q262.02 15.27 262.02 15.60L262.02 15.60L262.02 15.60Q262.02 15.68 262.02 15.78L262.02 15.78L262.02 15.78Q262.02 15.88 262.00 15.97L262.00 15.97L262.00 15.97Q261.60 15.96 261.17 15.95L261.17 15.95L261.17 15.95Q260.74 15.95 260.04 15.95L260.04 15.95L260.04 15.95Q259.57 15.95 259.16 15.97L259.16 15.97L259.16 15.97Q258.75 15.99 258.33 16.03L258.33 16.03L258.33 16.03Q257.91 16.07 257.44 16.14L257.44 16.14L257.44 16.14Q256.97 16.21 256.38 16.31L256.38 16.31L256.38 16.31Q255.74 16.06 255.14 15.08L255.14 15.08L255.14 15.08Q255.37 14.57 255.80 13.54L255.80 13.54L255.80 13.54Q256.23 12.52 256.89 10.79L256.89 10.79L256.89 10.79Q256.26 10.60 256.06 10.09L256.06 10.09L256.06 10.09Q256.13 10.02 256.47 9.92L256.47 9.92L256.47 9.92Q256.80 9.81 257.29 9.70L257.29 9.70L257.29 9.70Q257.50 9.16 257.65 8.75L257.65 8.75L257.65 8.75Q257.80 8.34 257.91 7.99L257.91 7.99L257.91 7.99Q258.02 7.63 258.11 7.29L258.11 7.29L258.11 7.29Q258.20 6.94 258.29 6.54L258.29 6.54L258.29 6.54Q257.80 6.51 257.52 6.27L257.52 6.27L257.52 6.27Q257.24 6.02 257.24 5.63L257.24 5.63L257.24 5.63Q257.24 5.52 257.27 5.36L257.27 5.36L257.27 5.36Q257.31 5.21 257.35 5.10L257.35 5.10L257.35 5.10Q257.63 5.14 257.89 5.15L257.89 5.15L257.89 5.15Q258.15 5.17 258.57 5.17L258.57 5.17L258.57 5.17Q259.45 5.17 260.22 5.12L260.22 5.12L260.22 5.12Q260.99 5.07 261.61 5.01L261.61 5.01L261.61 5.01Q262.23 4.96 262.68 4.91L262.68 4.91L262.68 4.91Q263.13 4.86 263.37 4.86L263.37 4.86L263.37 4.86Q263.69 4.86 263.94 5.19L263.94 5.19L263.94 5.19Q264.19 5.53 264.32 6.15L264.32 6.15L264.32 6.15Q263.89 6.10 263.61 6.09L263.61 6.09L263.61 6.09Q263.34 6.08 263.13 6.08L263.13 6.08L263.13 6.08Q262.36 6.08 261.72 6.15L261.72 6.15L261.72 6.15Q261.09 6.23 260.50 6.31L260.50 6.31L260.50 6.31Q260.41 6.44 260.31 6.64L260.31 6.64L260.31 6.64Q260.20 6.83 260.04 7.18L260.04 7.18L260.04 7.18Q259.87 7.53 259.62 8.06L259.62 8.06L259.62 8.06Q259.38 8.60 259.03 9.39L259.03 9.39L259.03 9.39Q259.56 9.31 260.03 9.26L260.03 9.26L260.03 9.26Q260.50 9.21 260.82 9.21ZM271.50 14.45L271.50 14.45L271.50 14.45Q271.71 13.99 272.01 13.26L272.01 13.26L272.01 13.26Q272.30 12.53 272.62 11.68L272.62 11.68L272.62 11.68Q272.94 10.84 273.28 9.95L273.28 9.95L273.28 9.95Q273.62 9.06 273.91 8.26L273.91 8.26L273.91 8.26Q274.20 7.46 274.42 6.83L274.42 6.83L274.42 6.83Q274.64 6.20 274.74 5.87L274.74 5.87L274.74 5.87Q273.85 6.23 273.22 6.97L273.22 6.97L273.22 6.97Q272.59 7.71 272.27 8.83L272.27 8.83L272.27 8.83Q271.95 8.72 271.68 8.43L271.68 8.43L271.68 8.43Q271.42 8.15 271.33 7.71L271.33 7.71L271.33 7.71Q271.47 7.07 271.86 6.54L271.86 6.54L271.86 6.54Q272.24 6.01 272.83 5.63L272.83 5.63L272.83 5.63Q273.42 5.25 274.19 5.05L274.19 5.05L274.19 5.05Q274.96 4.84 275.84 4.84L275.84 4.84L275.84 4.84Q276.96 4.84 277.90 5.17L277.90 5.17L277.90 5.17Q278.84 5.50 279.51 6.09L279.51 6.09L279.51 6.09Q280.18 6.68 280.56 7.50L280.56 7.50L280.56 7.50Q280.94 8.33 280.94 9.34L280.94 9.34L280.94 9.34Q280.94 10.71 280.43 11.96L280.43 11.96L280.43 11.96Q279.93 13.20 279.07 14.15L279.07 14.15L279.07 14.15Q278.21 15.11 277.07 15.67L277.07 15.67L277.07 15.67Q275.94 16.24 274.69 16.24L274.69 16.24L274.69 16.24Q273.55 16.24 272.73 15.79L272.73 15.79L272.73 15.79Q271.91 15.33 271.50 14.45ZM276.44 5.54L276.44 5.54L276.44 5.54Q275.74 5.54 275.11 5.74L275.11 5.74L275.11 5.74Q275.73 5.96 276.14 6.21L276.14 6.21L276.14 6.21Q276.54 6.45 276.70 6.59L276.70 6.59L276.70 6.59Q276.58 6.75 276.37 7.14L276.37 7.14L276.37 7.14Q276.15 7.53 275.86 8.09L275.86 8.09L275.86 8.09Q275.58 8.65 275.25 9.32L275.25 9.32L275.25 9.32Q274.93 9.98 274.62 10.68L274.62 10.68L274.62 10.68Q273.83 12.46 273.47 13.48L273.47 13.48L273.47 13.48Q273.11 14.50 273.11 14.90L273.11 14.90L273.11 14.90Q273.31 14.97 273.59 14.99L273.59 14.99L273.59 14.99Q273.87 15.02 274.19 15.02L274.19 15.02L274.19 15.02Q275.32 15.02 276.34 14.50L276.34 14.50L276.34 14.50Q277.35 13.97 278.12 13.09L278.12 13.09L278.12 13.09Q278.88 12.21 279.32 11.04L279.32 11.04L279.32 11.04Q279.76 9.87 279.76 8.58L279.76 8.58L279.76 8.58Q279.76 7.14 278.87 6.34L278.87 6.34L278.87 6.34Q277.97 5.54 276.44 5.54ZM290.68 7.28L290.68 7.28L290.68 7.28Q290.63 7.08 290.59 6.82L290.59 6.82L290.59 6.82Q290.56 6.57 290.56 6.06L290.56 6.06L290.56 6.06Q290.56 5.74 290.57 5.41L290.57 5.41L290.57 5.41Q290.58 5.08 290.70 4.84L290.70 4.84L290.70 4.84Q291.38 4.97 292.16 5.07L292.16 5.07L292.16 5.07Q292.94 5.18 293.75 5.26L293.75 5.26L293.75 5.26Q294.56 5.35 295.37 5.40L295.37 5.40L295.37 5.40Q296.18 5.45 296.94 5.45L296.94 5.45L296.94 5.45Q297.98 5.45 298.61 5.36L298.61 5.36L298.61 5.36Q298.83 5.67 298.89 6.09L298.89 6.09L298.89 6.09Q298.94 6.51 298.94 6.87L298.94 6.87L298.94 6.87Q297.33 7.53 295.89 8.55L295.89 8.55L295.89 8.55Q294.45 9.56 293.27 10.67L293.27 10.67L293.27 10.67Q292.10 11.77 291.24 12.85L291.24 12.85L291.24 12.85Q290.39 13.93 289.97 14.73L289.97 14.73L289.97 14.73Q290.22 14.69 290.49 14.65L290.49 14.65L290.49 14.65Q290.75 14.62 291.06 14.59L291.06 14.59L291.06 14.59Q291.37 14.56 291.75 14.53L291.75 14.53L291.75 14.53Q292.12 14.50 292.61 14.48L292.61 14.48L292.61 14.48Q293.30 14.43 293.82 14.33L293.82 14.33L293.82 14.33Q294.34 14.22 294.70 14.11L294.70 14.11L294.70 14.11Q295.06 13.99 295.28 13.88L295.28 13.88L295.28 13.88Q295.50 13.78 295.60 13.71L295.60 13.71L295.60 13.71Q295.65 13.83 295.73 14.08L295.73 14.08L295.73 14.08Q295.81 14.34 295.87 14.64L295.87 14.64L295.87 14.64Q295.93 14.94 295.97 15.25L295.97 15.25L295.97 15.25Q296.02 15.57 296.02 15.83L296.02 15.83L296.02 15.83Q296.02 15.97 296.01 16.02L296.01 16.02L296.01 16.02Q296.00 16.07 295.99 16.13L295.99 16.13L295.99 16.13Q295.36 16.09 294.72 16.03L294.72 16.03L294.72 16.03Q294.08 15.97 293.45 15.97L293.45 15.97L293.45 15.97Q292.61 15.97 291.71 16.07L291.71 16.07L291.71 16.07Q290.81 16.16 289.97 16.34L289.97 16.34L289.97 16.34Q289.14 16.53 288.45 16.83L288.45 16.83L288.45 16.83Q287.76 17.12 287.34 17.53L287.34 17.53L287.34 17.53Q287.22 17.16 287.10 16.91L287.10 16.91L287.10 16.91Q286.99 16.65 286.99 16.28L286.99 16.28L286.99 16.28Q286.99 15.92 287.13 15.70L287.13 15.70L287.13 15.70Q287.28 15.48 287.53 15.34L287.53 15.34L287.53 15.34Q288.37 14.14 289.44 12.96L289.44 12.96L289.44 12.96Q290.51 11.77 291.73 10.67L291.73 10.67L291.73 10.67Q292.95 9.56 294.25 8.56L294.25 8.56L294.25 8.56Q295.55 7.56 296.86 6.73L296.86 6.73L296.86 6.73Q296.02 6.69 295.08 6.69L295.08 6.69L295.08 6.69Q294.42 6.69 293.78 6.72L293.78 6.72L293.78 6.72Q293.13 6.75 292.56 6.81L292.56 6.81L292.56 6.81Q291.98 6.87 291.50 6.99L291.50 6.99L291.50 6.99Q291.02 7.11 290.68 7.28ZM303.88 17.54L303.88 17.54L303.88 17.54Q303.80 17.47 303.73 17.31L303.73 17.31L303.73 17.31Q303.66 17.15 303.66 17.01L303.66 17.01L303.66 17.01Q304.36 16.41 304.66 15.86L304.66 15.86L304.66 15.86Q304.96 15.32 304.96 14.67L304.96 14.67L304.96 14.67Q304.96 14.25 304.93 13.95L304.93 13.95L304.93 13.95Q304.89 13.65 304.79 13.26L304.79 13.26L304.79 13.26Q305.14 13.29 305.49 13.38L305.49 13.38L305.49 13.38Q305.83 13.47 306.10 13.60L306.10 13.60L306.10 13.60Q306.38 13.73 306.56 13.91L306.56 13.91L306.56 13.91Q306.74 14.08 306.78 14.25L306.78 14.25L306.78 14.25Q306.12 16.58 303.88 17.54ZM335.29 7.63L335.29 7.63L335.29 7.63Q335.29 8.40 334.90 9.10L334.90 9.10L334.90 9.10Q334.52 9.80 333.86 10.32L333.86 10.32L333.86 10.32Q333.21 10.85 332.34 11.16L332.34 11.16L332.34 11.16Q331.46 11.47 330.48 11.47L330.48 11.47L330.48 11.47Q330.13 11.47 329.93 11.38L329.93 11.38L329.93 11.38Q329.73 11.28 329.48 11.02L329.48 11.02L329.48 11.02Q328.78 12.54 328.33 13.82L328.33 13.82L328.33 13.82Q327.89 15.11 327.64 16.31L327.64 16.31L327.64 16.31Q327.11 16.18 326.77 15.87L326.77 15.87L326.77 15.87Q326.44 15.55 326.16 15.08L326.16 15.08L326.16 15.08Q326.30 14.81 326.49 14.38L326.49 14.38L326.49 14.38Q326.69 13.94 326.97 13.31L326.97 13.31L326.97 13.31Q327.25 12.67 327.62 11.78L327.62 11.78L327.62 11.78Q327.99 10.89 328.50 9.70L328.50 9.70L328.50 9.70Q328.72 9.16 328.89 8.75L328.89 8.75L328.89 8.75Q329.06 8.34 329.18 7.99L329.18 7.99L329.18 7.99Q329.31 7.63 329.41 7.28L329.41 7.28L329.41 7.28Q329.52 6.93 329.63 6.51L329.63 6.51L329.63 6.51Q328.97 6.72 328.42 7L328.42 7L328.42 7Q327.87 7.28 327.50 7.59L327.50 7.59L327.50 7.59Q327.38 7.50 327.24 7.34L327.24 7.34L327.24 7.34Q327.11 7.17 327.00 6.96L327.00 6.96L327.00 6.96Q326.89 6.76 326.80 6.55L326.80 6.55L326.80 6.55Q326.72 6.34 326.70 6.17L326.70 6.17L326.70 6.17Q327.11 5.89 327.71 5.66L327.71 5.66L327.71 5.66Q328.31 5.42 329.00 5.24L329.00 5.24L329.00 5.24Q329.69 5.07 330.42 4.97L330.42 4.97L330.42 4.97Q331.16 4.87 331.83 4.87L331.83 4.87L331.83 4.87Q332.63 4.87 333.27 5.07L333.27 5.07L333.27 5.07Q333.91 5.28 334.36 5.64L334.36 5.64L334.36 5.64Q334.81 6.01 335.05 6.51L335.05 6.51L335.05 6.51Q335.29 7.01 335.29 7.63ZM332.79 5.95L332.79 5.95L332.79 5.95Q332.26 5.95 331.70 6.03L331.70 6.03L331.87 6.29L331.87 6.29Q331.73 6.47 331.52 6.83L331.52 6.83L331.52 6.83Q331.31 7.20 331.06 7.71L331.06 7.71L331.06 7.71Q330.81 8.22 330.50 8.85L330.50 8.85L330.50 8.85Q330.20 9.48 329.87 10.18L329.87 10.18L329.87 10.18Q330.96 10.18 331.86 9.97L331.86 9.97L331.86 9.97Q332.75 9.77 333.39 9.41L333.39 9.41L333.39 9.41Q334.03 9.06 334.38 8.58L334.38 8.58L334.38 8.58Q334.74 8.11 334.74 7.56L334.74 7.56L334.74 7.56Q334.74 6.83 334.25 6.39L334.25 6.39L334.25 6.39Q333.76 5.95 332.79 5.95ZM342.16 14.38L342.16 14.38L342.16 14.38Q342.16 13.87 342.32 13.07L342.32 13.07L342.32 13.07Q342.48 12.26 342.74 11.33L342.74 11.33L342.74 11.33Q343.00 10.40 343.34 9.43L343.34 9.43L343.34 9.43Q343.67 8.46 344.02 7.60L344.02 7.60L344.02 7.60Q344.37 6.75 344.71 6.10L344.71 6.10L344.71 6.10Q345.04 5.46 345.31 5.18L345.31 5.18L345.31 5.18Q345.45 5.19 345.68 5.29L345.68 5.29L345.68 5.29Q345.91 5.38 346.15 5.50L346.15 5.50L346.15 5.50Q346.39 5.63 346.58 5.78L346.58 5.78L346.58 5.78Q346.78 5.92 346.84 6.05L346.84 6.05L346.84 6.05Q346.43 6.41 346.03 7.15L346.03 7.15L346.03 7.15Q345.63 7.88 345.26 8.82L345.26 8.82L345.26 8.82Q344.89 9.76 344.57 10.80L344.57 10.80L344.57 10.80Q344.25 11.84 344.01 12.82L344.01 12.82L344.01 12.82Q343.77 13.80 343.64 14.64L343.64 14.64L343.64 14.64Q343.50 15.48 343.50 16.00L343.50 16.00L343.50 16.00Q343.50 16.24 343.55 16.30L343.55 16.30L343.55 16.30Q343.24 16.28 343.10 16.19L343.10 16.19L343.10 16.19Q342.96 16.10 342.88 16.00L342.88 16.00L342.88 16.00Q342.80 15.89 342.74 15.79L342.74 15.79L342.74 15.79Q342.68 15.68 342.55 15.62L342.55 15.62L342.55 15.62Q342.45 15.58 342.38 15.43L342.38 15.43L342.38 15.43Q342.31 15.27 342.26 15.09L342.26 15.09L342.26 15.09Q342.22 14.90 342.19 14.70L342.19 14.70L342.19 14.70Q342.16 14.50 342.16 14.38ZM358.40 4.83L358.40 4.83L358.40 4.83Q358.93 4.83 359.51 5.03L359.51 5.03L359.51 5.03Q360.08 5.22 360.51 5.53L360.51 5.53L360.51 5.53Q360.37 6.24 360.25 6.82L360.25 6.82L360.25 6.82Q360.14 7.39 360.04 7.86L360.04 7.86L360.04 7.86Q359.94 8.33 359.85 8.71L359.85 8.71L359.85 8.71Q359.76 9.10 359.67 9.44L359.67 9.44L359.67 9.44Q359.34 10.70 358.98 11.71L358.98 11.71L358.98 11.71Q358.62 12.73 358.22 13.54L358.22 13.54L358.22 13.54Q357.83 14.35 357.38 14.98L357.38 14.98L357.38 14.98Q356.94 15.61 356.44 16.09L356.44 16.09L356.44 16.09Q355.95 16.55 355.46 16.84L355.46 16.84L355.46 16.84Q354.97 17.14 354.55 17.22L354.55 17.22L354.55 17.22Q353.99 17.22 353.51 17.09L353.51 17.09L353.51 17.09Q353.04 16.97 352.69 16.75L352.69 16.75L352.69 16.75Q352.35 16.53 352.16 16.23L352.16 16.23L352.16 16.23Q351.97 15.93 351.97 15.57L351.97 15.57L351.97 15.57Q351.97 15.18 352.17 14.58L352.17 14.58L352.17 14.58Q352.37 13.99 352.77 13.17L352.77 13.17L352.77 13.17Q352.94 13.19 353.16 13.26L353.16 13.26L353.16 13.26Q353.39 13.33 353.61 13.43L353.61 13.43L353.61 13.43Q353.84 13.52 354.02 13.64L354.02 13.64L354.02 13.64Q354.20 13.76 354.28 13.87L354.28 13.87L354.28 13.87Q353.84 14.34 353.56 14.89L353.56 14.89L353.56 14.89Q353.28 15.44 353.28 15.85L353.28 15.85L353.28 15.85Q353.28 16.09 353.37 16.27L353.37 16.27L353.37 16.27Q353.46 16.46 353.68 16.62L353.68 16.62L353.68 16.62Q354.54 16.30 355.35 15.42L355.35 15.42L355.35 15.42Q356.16 14.55 356.79 13.24L356.79 13.24L356.79 13.24Q357.17 12.47 357.48 11.48L357.48 11.48L357.48 11.48Q357.78 10.49 358.00 9.48L358.00 9.48L358.00 9.48Q358.22 8.48 358.34 7.57L358.34 7.57L358.34 7.57Q358.46 6.65 358.46 6.02L358.46 6.02L358.46 6.02Q358.46 5.92 358.45 5.75L358.45 5.75L358.45 5.75Q358.44 5.57 358.44 5.38L358.44 5.38L358.44 5.38Q358.43 5.19 358.41 5.04L358.41 5.04L358.41 5.04Q358.40 4.89 358.40 4.83ZM378.07 14.38L378.07 14.38L378.07 14.38Q378.07 13.87 378.23 13.07L378.23 13.07L378.23 13.07Q378.39 12.26 378.65 11.33L378.65 11.33L378.65 11.33Q378.91 10.40 379.25 9.43L379.25 9.43L379.25 9.43Q379.58 8.46 379.93 7.60L379.93 7.60L379.93 7.60Q380.28 6.75 380.62 6.10L380.62 6.10L380.62 6.10Q380.95 5.46 381.22 5.18L381.22 5.18L381.22 5.18Q381.36 5.19 381.59 5.29L381.59 5.29L381.59 5.29Q381.82 5.38 382.06 5.50L382.06 5.50L382.06 5.50Q382.30 5.63 382.49 5.78L382.49 5.78L382.49 5.78Q382.69 5.92 382.75 6.05L382.75 6.05L382.75 6.05Q382.34 6.41 381.94 7.15L381.94 7.15L381.94 7.15Q381.54 7.88 381.17 8.82L381.17 8.82L381.17 8.82Q380.80 9.76 380.48 10.80L380.48 10.80L380.48 10.80Q380.16 11.84 379.92 12.82L379.92 12.82L379.92 12.82Q379.68 13.80 379.55 14.64L379.55 14.64L379.55 14.64Q379.41 15.48 379.41 16.00L379.41 16.00L379.41 16.00Q379.41 16.24 379.46 16.30L379.46 16.30L379.46 16.30Q379.15 16.28 379.01 16.19L379.01 16.19L379.01 16.19Q378.87 16.10 378.79 16.00L378.79 16.00L378.79 16.00Q378.71 15.89 378.65 15.79L378.65 15.79L378.65 15.79Q378.59 15.68 378.46 15.62L378.46 15.62L378.46 15.62Q378.36 15.58 378.29 15.43L378.29 15.43L378.29 15.43Q378.22 15.27 378.18 15.09L378.18 15.09L378.18 15.09Q378.13 14.90 378.10 14.70L378.10 14.70L378.10 14.70Q378.07 14.50 378.07 14.38ZM408.93 7.63L408.93 7.63L408.93 7.63Q408.93 8.40 408.54 9.10L408.54 9.10L408.54 9.10Q408.16 9.80 407.50 10.32L407.50 10.32L407.50 10.32Q406.85 10.85 405.98 11.16L405.98 11.16L405.98 11.16Q405.10 11.47 404.12 11.47L404.12 11.47L404.12 11.47Q403.77 11.47 403.57 11.38L403.57 11.38L403.57 11.38Q403.37 11.28 403.12 11.02L403.12 11.02L403.12 11.02Q402.42 12.54 401.98 13.82L401.98 13.82L401.98 13.82Q401.53 15.11 401.28 16.31L401.28 16.31L401.28 16.31Q400.75 16.18 400.41 15.87L400.41 15.87L400.41 15.87Q400.08 15.55 399.80 15.08L399.80 15.08L399.80 15.08Q399.94 14.81 400.13 14.38L400.13 14.38L400.13 14.38Q400.33 13.94 400.61 13.31L400.61 13.31L400.61 13.31Q400.89 12.67 401.26 11.78L401.26 11.78L401.26 11.78Q401.63 10.89 402.14 9.70L402.14 9.70L402.14 9.70Q402.36 9.16 402.53 8.75L402.53 8.75L402.53 8.75Q402.70 8.34 402.82 7.99L402.82 7.99L402.82 7.99Q402.95 7.63 403.05 7.28L403.05 7.28L403.05 7.28Q403.16 6.93 403.27 6.51L403.27 6.51L403.27 6.51Q402.61 6.72 402.06 7L402.06 7L402.06 7Q401.51 7.28 401.14 7.59L401.14 7.59L401.14 7.59Q401.02 7.50 400.88 7.34L400.88 7.34L400.88 7.34Q400.75 7.17 400.64 6.96L400.64 6.96L400.64 6.96Q400.53 6.76 400.44 6.55L400.44 6.55L400.44 6.55Q400.36 6.34 400.34 6.17L400.34 6.17L400.34 6.17Q400.75 5.89 401.35 5.66L401.35 5.66L401.35 5.66Q401.95 5.42 402.64 5.24L402.64 5.24L402.64 5.24Q403.33 5.07 404.06 4.97L404.06 4.97L404.06 4.97Q404.80 4.87 405.47 4.87L405.47 4.87L405.47 4.87Q406.27 4.87 406.91 5.07L406.91 5.07L406.91 5.07Q407.55 5.28 408.00 5.64L408.00 5.64L408.00 5.64Q408.45 6.01 408.69 6.51L408.69 6.51L408.69 6.51Q408.93 7.01 408.93 7.63ZM406.43 5.95L406.43 5.95L406.43 5.95Q405.90 5.95 405.34 6.03L405.34 6.03L405.51 6.29L405.51 6.29Q405.37 6.47 405.16 6.83L405.16 6.83L405.16 6.83Q404.95 7.20 404.70 7.71L404.70 7.71L404.70 7.71Q404.45 8.22 404.14 8.85L404.14 8.85L404.14 8.85Q403.84 9.48 403.51 10.18L403.51 10.18L403.51 10.18Q404.60 10.18 405.50 9.97L405.50 9.97L405.50 9.97Q406.39 9.77 407.03 9.41L407.03 9.41L407.03 9.41Q407.67 9.06 408.02 8.58L408.02 8.58L408.02 8.58Q408.38 8.11 408.38 7.56L408.38 7.56L408.38 7.56Q408.38 6.83 407.89 6.39L407.89 6.39L407.89 6.39Q407.40 5.95 406.43 5.95ZM421.83 4.98L421.83 4.98L421.83 4.98Q422.10 5.10 422.38 5.27L422.38 5.27L422.38 5.27Q422.66 5.45 422.90 5.63L422.90 5.63L422.90 5.63Q423.14 5.81 423.30 5.98L423.30 5.98L423.30 5.98Q423.46 6.16 423.47 6.27L423.47 6.27L423.47 6.27Q423.23 6.22 423.00 6.20L423.00 6.20L423.00 6.20Q422.76 6.17 422.56 6.17L422.56 6.17L422.56 6.17Q421.93 6.17 421.31 6.48L421.31 6.48L421.31 6.48Q420.69 6.79 420.13 7.32L420.13 7.32L420.13 7.32Q419.57 7.85 419.09 8.57L419.09 8.57L419.09 8.57Q418.61 9.28 418.27 10.09L418.27 10.09L418.27 10.09Q417.93 10.91 417.73 11.77L417.73 11.77L417.73 11.77Q417.54 12.64 417.54 13.48L417.54 13.48L417.54 13.48Q417.54 14.57 417.90 15.11L417.90 15.11L417.90 15.11Q418.26 15.64 418.96 15.64L418.96 15.64L418.96 15.64Q419.30 15.64 419.69 15.51L419.69 15.51L419.69 15.51Q420.08 15.37 420.49 15.13L420.49 15.13L420.49 15.13Q420.90 14.90 421.29 14.56L421.29 14.56L421.29 14.56Q421.68 14.22 422.02 13.82L422.02 13.82L422.02 13.82Q422.51 13.23 422.90 12.48L422.90 12.48L422.90 12.48Q423.29 11.73 423.56 10.89L423.56 10.89L423.56 10.89Q423.84 10.05 423.98 9.16L423.98 9.16L423.98 9.16Q424.13 8.27 424.13 7.42L424.13 7.42L424.13 7.42Q424.13 7.08 424.12 6.85L424.12 6.85L424.12 6.85Q424.10 6.62 424.08 6.46L424.08 6.46L424.08 6.46Q424.06 6.30 424.05 6.20L424.05 6.20L424.05 6.20Q424.03 6.10 424.02 6.03L424.02 6.03L424.02 6.03Q424.19 6.12 424.39 6.24L424.39 6.24L424.39 6.24Q424.59 6.36 424.77 6.59L424.77 6.59L424.77 6.59Q424.94 6.82 425.06 7.20L425.06 7.20L425.06 7.20Q425.18 7.57 425.18 8.18L425.18 8.18L425.18 8.18Q425.18 9.16 424.95 10.10L424.95 10.10L424.95 10.10Q424.72 11.05 424.31 11.90L424.31 11.90L424.31 11.90Q423.89 12.75 423.33 13.50L423.33 13.50L423.33 13.50Q422.77 14.24 422.13 14.80L422.13 14.80L422.13 14.80Q421.29 15.54 420.34 15.95L420.34 15.95L420.34 15.95Q419.38 16.35 418.50 16.35L418.50 16.35L418.50 16.35Q417.21 16.35 416.54 15.53L416.54 15.53L416.54 15.53Q415.86 14.71 415.86 13.12L415.86 13.12L415.86 13.12Q415.86 12.26 416.05 11.31L416.05 11.31L416.05 11.31Q416.23 10.36 416.58 9.44L416.58 9.44L416.58 9.44Q416.92 8.51 417.40 7.68L417.40 7.68L417.40 7.68Q417.87 6.85 418.44 6.21L418.44 6.21L418.44 6.21Q419.01 5.57 419.66 5.19L419.66 5.19L419.66 5.19Q420.31 4.82 420.99 4.82L420.99 4.82L420.99 4.82Q421.22 4.82 421.41 4.85L421.41 4.85L421.41 4.85Q421.61 4.89 421.83 4.98ZM442.04 7.63L442.04 7.63L442.04 7.63Q442.04 8.40 441.65 9.10L441.65 9.10L441.65 9.10Q441.27 9.80 440.62 10.32L440.62 10.32L440.62 10.32Q439.96 10.85 439.09 11.16L439.09 11.16L439.09 11.16Q438.21 11.47 437.23 11.47L437.23 11.47L437.23 11.47Q436.88 11.47 436.68 11.38L436.68 11.38L436.68 11.38Q436.48 11.28 436.23 11.02L436.23 11.02L436.23 11.02Q435.53 12.54 435.09 13.82L435.09 13.82L435.09 13.82Q434.64 15.11 434.39 16.31L434.39 16.31L434.39 16.31Q433.86 16.18 433.52 15.87L433.52 15.87L433.52 15.87Q433.19 15.55 432.91 15.08L432.91 15.08L432.91 15.08Q433.05 14.81 433.24 14.38L433.24 14.38L433.24 14.38Q433.44 13.94 433.72 13.31L433.72 13.31L433.72 13.31Q434 12.67 434.37 11.78L434.37 11.78L434.37 11.78Q434.74 10.89 435.25 9.70L435.25 9.70L435.25 9.70Q435.47 9.16 435.64 8.75L435.64 8.75L435.64 8.75Q435.81 8.34 435.93 7.99L435.93 7.99L435.93 7.99Q436.06 7.63 436.16 7.28L436.16 7.28L436.16 7.28Q436.27 6.93 436.38 6.51L436.38 6.51L436.38 6.51Q435.72 6.72 435.17 7L435.17 7L435.17 7Q434.62 7.28 434.25 7.59L434.25 7.59L434.25 7.59Q434.13 7.50 433.99 7.34L433.99 7.34L433.99 7.34Q433.86 7.17 433.75 6.96L433.75 6.96L433.75 6.96Q433.64 6.76 433.55 6.55L433.55 6.55L433.55 6.55Q433.47 6.34 433.45 6.17L433.45 6.17L433.45 6.17Q433.86 5.89 434.46 5.66L434.46 5.66L434.46 5.66Q435.06 5.42 435.75 5.24L435.75 5.24L435.75 5.24Q436.44 5.07 437.17 4.97L437.17 4.97L437.17 4.97Q437.91 4.87 438.58 4.87L438.58 4.87L438.58 4.87Q439.38 4.87 440.02 5.07L440.02 5.07L440.02 5.07Q440.66 5.28 441.11 5.64L441.11 5.64L441.11 5.64Q441.56 6.01 441.80 6.51L441.80 6.51L441.80 6.51Q442.04 7.01 442.04 7.63ZM439.54 5.95L439.54 5.95L439.54 5.95Q439.01 5.95 438.45 6.03L438.45 6.03L438.62 6.29L438.62 6.29Q438.48 6.47 438.27 6.83L438.27 6.83L438.27 6.83Q438.06 7.20 437.81 7.71L437.81 7.71L437.81 7.71Q437.56 8.22 437.25 8.85L437.25 8.85L437.25 8.85Q436.95 9.48 436.62 10.18L436.62 10.18L436.62 10.18Q437.71 10.18 438.61 9.97L438.61 9.97L438.61 9.97Q439.50 9.77 440.14 9.41L440.14 9.41L440.14 9.41Q440.78 9.06 441.13 8.58L441.13 8.58L441.13 8.58Q441.49 8.11 441.49 7.56L441.49 7.56L441.49 7.56Q441.49 6.83 441 6.39L441 6.39L441 6.39Q440.51 5.95 439.54 5.95ZM453.87 5.75L453.87 5.75L453.87 5.75Q453.25 6.58 452.75 7.57L452.75 7.57L452.75 7.57Q452.24 8.57 451.89 9.61L451.89 9.61L451.89 9.61Q451.53 10.65 451.34 11.67L451.34 11.67L451.34 11.67Q451.15 12.68 451.15 13.57L451.15 13.57L451.15 13.57Q451.15 14.66 451.47 15.15L451.47 15.15L451.47 15.15Q451.79 15.64 452.58 15.64L452.58 15.64L452.58 15.64Q453.49 15.64 454.17 15.00L454.17 15.00L454.17 15.00Q454.86 14.36 455.46 13.24L455.46 13.24L455.46 13.24Q455.85 12.52 456.13 11.65L456.13 11.65L456.13 11.65Q456.41 10.78 456.59 9.86L456.59 9.86L456.59 9.86Q456.76 8.95 456.85 8.02L456.85 8.02L456.85 8.02Q456.93 7.08 456.93 6.23L456.93 6.23L456.93 6.23Q456.93 5.68 456.92 5.43L456.92 5.43L456.92 5.43Q456.90 5.18 456.88 5.03L456.88 5.03L456.88 5.03Q456.92 5.03 457.09 5.05L457.09 5.05L457.09 5.05Q457.25 5.08 457.47 5.12L457.47 5.12L457.47 5.12Q457.69 5.17 457.91 5.24L457.91 5.24L457.91 5.24Q458.12 5.31 458.28 5.39L458.28 5.39L458.28 5.39Q458.21 6.45 458.02 7.59L458.02 7.59L458.02 7.59Q457.83 8.72 457.52 9.83L457.52 9.83L457.52 9.83Q457.21 10.93 456.81 11.96L456.81 11.96L456.81 11.96Q456.40 12.98 455.90 13.79L455.90 13.79L455.90 13.79Q455.15 14.99 454.23 15.67L454.23 15.67L454.23 15.67Q453.31 16.35 452.05 16.35L452.05 16.35L452.05 16.35Q450.76 16.35 450.04 15.60L450.04 15.60L450.04 15.60Q449.33 14.85 449.33 13.33L449.33 13.33L449.33 13.33Q449.33 12.45 449.53 11.33L449.53 11.33L449.53 11.33Q449.72 10.22 450.05 9.07L450.05 9.07L450.05 9.07Q450.38 7.91 450.81 6.81L450.81 6.81L450.81 6.81Q451.25 5.71 451.72 4.84L451.72 4.84L451.72 4.84Q451.96 4.86 452.28 4.94L452.28 4.94L452.28 4.94Q452.61 5.03 452.91 5.16L452.91 5.16L452.91 5.16Q453.22 5.29 453.48 5.45L453.48 5.45L453.48 5.45Q453.74 5.61 453.87 5.75ZM474.38 5.74L474.38 5.74L474.38 5.74Q474.42 5.98 474.44 6.07L474.44 6.07L474.44 6.07Q474.46 6.16 474.46 6.31L474.46 6.31L474.46 6.31Q474.46 6.78 474.26 7.18L474.26 7.18L474.26 7.18Q474.05 7.57 473.70 7.74L473.70 7.74L473.70 7.74Q473.42 7.36 473.02 7.09L473.02 7.09L473.02 7.09Q472.61 6.82 472.13 6.64L472.13 6.64L472.13 6.64Q471.65 6.47 471.13 6.38L471.13 6.38L471.13 6.38Q470.61 6.30 470.12 6.30L470.12 6.30L470.12 6.30Q469.63 6.30 469.20 6.38L469.20 6.38L469.20 6.38Q468.78 6.45 468.45 6.59L468.45 6.59L468.45 6.59Q468.12 6.72 467.93 6.92L467.93 6.92L467.93 6.92Q467.74 7.11 467.74 7.36L467.74 7.36L467.74 7.36Q467.78 7.67 468.12 7.99L468.12 7.99L468.12 7.99Q468.45 8.30 468.94 8.60L468.94 8.60L468.94 8.60Q469.43 8.90 470.03 9.20L470.03 9.20L470.03 9.20Q470.62 9.49 471.20 9.76L471.20 9.76L471.20 9.76Q471.91 10.09 472.43 10.38L472.43 10.38L472.43 10.38Q472.95 10.67 473.28 11.01L473.28 11.01L473.28 11.01Q473.62 11.35 473.79 11.79L473.79 11.79L473.79 11.79Q473.96 12.22 473.96 12.84L473.96 12.84L473.96 12.84Q473.96 13.55 473.72 14.18L473.72 14.18L473.72 14.18Q473.48 14.80 473.02 15.26L473.02 15.26L473.02 15.26Q472.57 15.72 471.93 15.98L471.93 15.98L471.93 15.98Q471.28 16.24 470.48 16.24L470.48 16.24L470.48 16.24Q469.70 16.24 468.79 16.00L468.79 16.00L468.79 16.00Q467.88 15.76 467.09 15.35L467.09 15.35L467.09 15.35Q466.30 14.94 465.77 14.40L465.77 14.40L465.77 14.40Q465.25 13.86 465.25 13.26L465.25 13.26L465.25 13.26Q465.25 12.98 465.41 12.54L465.41 12.54L465.41 12.54Q465.57 12.11 465.99 11.63L465.99 11.63L465.99 11.63Q466.03 12.05 466.44 12.63L466.44 12.63L466.44 12.63Q466.86 13.20 467.68 13.69L467.68 13.69L467.68 13.69Q468.45 14.14 469.27 14.34L469.27 14.34L469.27 14.34Q470.09 14.55 470.81 14.55L470.81 14.55L470.81 14.55Q471.59 14.55 472.08 14.35L472.08 14.35L472.08 14.35Q472.57 14.15 472.85 13.88L472.85 13.88L472.85 13.88Q473.13 13.61 473.24 13.33L473.24 13.33L473.24 13.33Q473.35 13.05 473.37 12.88L473.37 12.88L473.37 12.88Q473.35 12.60 473.11 12.34L473.11 12.34L473.11 12.34Q472.86 12.08 472.45 11.84L472.45 11.84L472.45 11.84Q472.04 11.59 471.49 11.34L471.49 11.34L471.49 11.34Q470.95 11.09 470.36 10.84L470.36 10.84L470.36 10.84Q469.48 10.44 468.84 10.10L468.84 10.10L468.84 10.10Q468.20 9.76 467.79 9.40L467.79 9.40L467.79 9.40Q467.38 9.04 467.19 8.65L467.19 8.65L467.19 8.65Q467.00 8.26 467.00 7.76L467.00 7.76L467.00 7.76Q467.00 6.97 467.47 6.27L467.47 6.27L467.47 6.27Q467.95 5.57 468.85 5.21L468.85 5.21L468.85 5.21Q469.29 5.01 469.81 4.93L469.81 4.93L469.81 4.93Q470.32 4.84 470.81 4.84L470.81 4.84L470.81 4.84Q471.73 4.84 472.61 5.10L472.61 5.10L472.61 5.10Q473.49 5.35 474.38 5.74ZM484.47 7.28L484.47 7.28L484.47 7.28Q484.41 7.08 484.38 6.82L484.38 6.82L484.38 6.82Q484.34 6.57 484.34 6.06L484.34 6.06L484.34 6.06Q484.34 5.74 484.36 5.41L484.36 5.41L484.36 5.41Q484.37 5.08 484.48 4.84L484.48 4.84L484.48 4.84Q485.17 4.97 485.95 5.07L485.95 5.07L485.95 5.07Q486.72 5.18 487.54 5.26L487.54 5.26L487.54 5.26Q488.35 5.35 489.16 5.40L489.16 5.40L489.16 5.40Q489.97 5.45 490.73 5.45L490.73 5.45L490.73 5.45Q491.76 5.45 492.39 5.36L492.39 5.36L492.39 5.36Q492.62 5.67 492.67 6.09L492.67 6.09L492.67 6.09Q492.73 6.51 492.73 6.87L492.73 6.87L492.73 6.87Q491.12 7.53 489.68 8.55L489.68 8.55L489.68 8.55Q488.24 9.56 487.06 10.67L487.06 10.67L487.06 10.67Q485.88 11.77 485.03 12.85L485.03 12.85L485.03 12.85Q484.18 13.93 483.76 14.73L483.76 14.73L483.76 14.73Q484.01 14.69 484.27 14.65L484.27 14.65L484.27 14.65Q484.54 14.62 484.85 14.59L484.85 14.59L484.85 14.59Q485.16 14.56 485.53 14.53L485.53 14.53L485.53 14.53Q485.91 14.50 486.40 14.48L486.40 14.48L486.40 14.48Q487.09 14.43 487.61 14.33L487.61 14.33L487.61 14.33Q488.12 14.22 488.49 14.11L488.49 14.11L488.49 14.11Q488.85 13.99 489.07 13.88L489.07 13.88L489.07 13.88Q489.29 13.78 489.38 13.71L489.38 13.71L489.38 13.71Q489.44 13.83 489.52 14.08L489.52 14.08L489.52 14.08Q489.59 14.34 489.66 14.64L489.66 14.64L489.66 14.64Q489.72 14.94 489.76 15.25L489.76 15.25L489.76 15.25Q489.80 15.57 489.80 15.83L489.80 15.83L489.80 15.83Q489.80 15.97 489.80 16.02L489.80 16.02L489.80 16.02Q489.79 16.07 489.78 16.13L489.78 16.13L489.78 16.13Q489.15 16.09 488.51 16.03L488.51 16.03L488.51 16.03Q487.87 15.97 487.24 15.97L487.24 15.97L487.24 15.97Q486.40 15.97 485.50 16.07L485.50 16.07L485.50 16.07Q484.60 16.16 483.76 16.34L483.76 16.34L483.76 16.34Q482.93 16.53 482.24 16.83L482.24 16.83L482.24 16.83Q481.54 17.12 481.12 17.53L481.12 17.53L481.12 17.53Q481.01 17.16 480.89 16.91L480.89 16.91L480.89 16.91Q480.77 16.65 480.77 16.28L480.77 16.28L480.77 16.28Q480.77 15.92 480.92 15.70L480.92 15.70L480.92 15.70Q481.07 15.48 481.32 15.34L481.32 15.34L481.32 15.34Q482.16 14.14 483.23 12.96L483.23 12.96L483.23 12.96Q484.30 11.77 485.52 10.67L485.52 10.67L485.52 10.67Q486.74 9.56 488.04 8.56L488.04 8.56L488.04 8.56Q489.34 7.56 490.64 6.73L490.64 6.73L490.64 6.73Q489.80 6.69 488.87 6.69L488.87 6.69L488.87 6.69Q488.21 6.69 487.56 6.72L487.56 6.72L487.56 6.72Q486.92 6.75 486.35 6.81L486.35 6.81L486.35 6.81Q485.77 6.87 485.29 6.99L485.29 6.99L485.29 6.99Q484.81 7.11 484.47 7.28ZM499.42 12.43L499.42 12.43L499.42 12.43Q499.42 11.45 499.65 10.51L499.65 10.51L499.65 10.51Q499.88 9.56 500.30 8.71L500.30 8.71L500.30 8.71Q500.72 7.87 501.30 7.16L501.30 7.16L501.30 7.16Q501.89 6.45 502.58 5.94L502.58 5.94L502.58 5.94Q503.27 5.42 504.06 5.13L504.06 5.13L504.06 5.13Q504.84 4.84 505.67 4.84L505.67 4.84L505.67 4.84Q506.63 4.84 507.17 5.25L507.17 5.25L507.17 5.25Q507.71 5.66 507.71 6.38L507.71 6.38L507.71 6.38Q507.71 6.66 507.63 6.96L507.63 6.96L507.63 6.96Q507.56 7.25 507.41 7.54L507.41 7.54L507.41 7.54Q507.26 7.83 507.07 8.09L507.07 8.09L507.07 8.09Q506.87 8.36 506.63 8.55L506.63 8.55L506.63 8.55Q506.27 8.50 506.00 8.22L506.00 8.22L506.00 8.22Q505.74 7.95 505.67 7.59L505.67 7.59L505.67 7.59Q506.16 7.18 506.44 6.74L506.44 6.74L506.44 6.74Q506.73 6.30 506.73 5.94L506.73 5.94L506.73 5.94Q506.73 5.32 505.96 5.32L505.96 5.32L505.96 5.32Q505.64 5.32 505.29 5.45L505.29 5.45L505.29 5.45Q504.95 5.59 504.60 5.82L504.60 5.82L504.60 5.82Q504.25 6.06 503.92 6.40L503.92 6.40L503.92 6.40Q503.59 6.73 503.31 7.14L503.31 7.14L503.31 7.14Q501.37 9.94 501.37 12.87L501.37 12.87L501.37 12.87Q501.37 13.90 501.69 14.53L501.69 14.53L501.69 14.53Q502.01 15.16 502.54 15.27L502.54 15.27L502.54 15.27Q503.15 15.13 504.07 14.50L504.07 14.50L504.07 14.50Q504.99 13.87 506.09 12.87L506.09 12.87L506.09 12.87Q506.23 13.01 506.25 13.16L506.25 13.16L506.25 13.16Q505.85 13.69 505.41 14.18L505.41 14.18L505.41 14.18Q504.98 14.67 504.55 15.08L504.55 15.08L504.55 15.08Q504.13 15.48 503.71 15.79L503.71 15.79L503.71 15.79Q503.30 16.10 502.95 16.27L502.95 16.27L502.95 16.27Q501.21 16.24 500.32 15.27L500.32 15.27L500.32 15.27Q499.42 14.31 499.42 12.43ZM516.70 7.28L516.70 7.28L516.70 7.28Q516.64 7.08 516.61 6.82L516.61 6.82L516.61 6.82Q516.57 6.57 516.57 6.06L516.57 6.06L516.57 6.06Q516.57 5.74 516.59 5.41L516.59 5.41L516.59 5.41Q516.60 5.08 516.71 4.84L516.71 4.84L516.71 4.84Q517.40 4.97 518.17 5.07L518.17 5.07L518.17 5.07Q518.95 5.18 519.76 5.26L519.76 5.26L519.76 5.26Q520.58 5.35 521.39 5.40L521.39 5.40L521.39 5.40Q522.20 5.45 522.96 5.45L522.96 5.45L522.96 5.45Q523.99 5.45 524.62 5.36L524.62 5.36L524.62 5.36Q524.85 5.67 524.90 6.09L524.90 6.09L524.90 6.09Q524.96 6.51 524.96 6.87L524.96 6.87L524.96 6.87Q523.35 7.53 521.91 8.55L521.91 8.55L521.91 8.55Q520.46 9.56 519.29 10.67L519.29 10.67L519.29 10.67Q518.11 11.77 517.26 12.85L517.26 12.85L517.26 12.85Q516.40 13.93 515.98 14.73L515.98 14.73L515.98 14.73Q516.24 14.69 516.50 14.65L516.50 14.65L516.50 14.65Q516.77 14.62 517.08 14.59L517.08 14.59L517.08 14.59Q517.38 14.56 517.76 14.53L517.76 14.53L517.76 14.53Q518.14 14.50 518.63 14.48L518.63 14.48L518.63 14.48Q519.32 14.43 519.83 14.33L519.83 14.33L519.83 14.33Q520.35 14.22 520.72 14.11L520.72 14.11L520.72 14.11Q521.08 13.99 521.30 13.88L521.30 13.88L521.30 13.88Q521.51 13.78 521.61 13.71L521.61 13.71L521.61 13.71Q521.67 13.83 521.75 14.08L521.75 14.08L521.75 14.08Q521.82 14.34 521.88 14.64L521.88 14.64L521.88 14.64Q521.95 14.94 521.99 15.25L521.99 15.25L521.99 15.25Q522.03 15.57 522.03 15.83L522.03 15.83L522.03 15.83Q522.03 15.97 522.02 16.02L522.02 16.02L522.02 16.02Q522.02 16.07 522.00 16.13L522.00 16.13L522.00 16.13Q521.37 16.09 520.74 16.03L520.74 16.03L520.74 16.03Q520.10 15.97 519.47 15.97L519.47 15.97L519.47 15.97Q518.63 15.97 517.73 16.07L517.73 16.07L517.73 16.07Q516.82 16.16 515.99 16.34L515.99 16.34L515.99 16.34Q515.16 16.53 514.47 16.83L514.47 16.83L514.47 16.83Q513.77 17.12 513.35 17.53L513.35 17.53L513.35 17.53Q513.24 17.16 513.12 16.91L513.12 16.91L513.12 16.91Q513.00 16.65 513.00 16.28L513.00 16.28L513.00 16.28Q513.00 15.92 513.15 15.70L513.15 15.70L513.15 15.70Q513.30 15.48 513.55 15.34L513.55 15.34L513.55 15.34Q514.39 14.14 515.46 12.96L515.46 12.96L515.46 12.96Q516.53 11.77 517.75 10.67L517.75 10.67L517.75 10.67Q518.97 9.56 520.27 8.56L520.27 8.56L520.27 8.56Q521.57 7.56 522.87 6.73L522.87 6.73L522.87 6.73Q522.03 6.69 521.09 6.69L521.09 6.69L521.09 6.69Q520.44 6.69 519.79 6.72L519.79 6.72L519.79 6.72Q519.15 6.75 518.57 6.81L518.57 6.81L518.57 6.81Q518 6.87 517.52 6.99L517.52 6.99L517.52 6.99Q517.03 7.11 516.70 7.28ZM531.71 16.24L531.71 16.24L531.71 16.24Q531.03 16.04 530.78 15.85L530.78 15.85L530.78 15.85Q530.52 15.65 530.52 15.36L530.52 15.36L530.52 15.36Q530.52 15.13 530.64 14.73L530.64 14.73L530.64 14.73Q530.77 14.32 531.01 13.77L531.01 13.77L531.01 13.77Q531.26 13.22 531.60 12.54L531.60 12.54L531.60 12.54Q531.94 11.87 532.38 11.10L532.38 11.10L532.38 11.10Q532.01 11.09 531.73 11.08L531.73 11.08L531.73 11.08Q531.44 11.07 531.26 11.07L531.26 11.07L531.26 11.07Q531.34 10.86 531.73 10.71L531.73 10.71L531.73 10.71Q532.13 10.56 532.77 10.44L532.77 10.44L532.77 10.44Q533.32 9.53 533.94 8.71L533.94 8.71L533.94 8.71Q534.56 7.88 535.19 7.19L535.19 7.19L535.19 7.19Q535.82 6.50 536.45 5.97L536.45 5.97L536.45 5.97Q537.08 5.45 537.66 5.14L537.66 5.14L537.66 5.14Q537.67 5.04 537.68 4.97L537.68 4.97L537.68 4.97Q537.68 4.90 537.68 4.87L537.68 4.87L537.68 4.87Q537.88 4.87 538.21 4.97L538.21 4.97L538.21 4.97Q538.54 5.07 538.85 5.21L538.85 5.21L538.85 5.21Q539.17 5.35 539.41 5.49L539.41 5.49L539.41 5.49Q539.66 5.64 539.69 5.74L539.69 5.74L539.69 5.74Q539.22 6.55 538.78 8.17L538.78 8.17L538.78 8.17Q538.33 9.79 538.03 12.04L538.03 12.04L538.03 12.04Q537.96 12.60 537.92 13.31L537.92 13.31L537.92 13.31Q537.87 14.03 537.87 14.91L537.87 14.91L537.87 14.91Q537.87 15.22 537.87 15.54L537.87 15.54L537.87 15.54Q537.87 15.86 537.89 16.21L537.89 16.21L537.89 16.21Q537.87 16.23 537.84 16.23L537.84 16.23L537.84 16.23Q537.81 16.23 537.73 16.23L537.73 16.23L537.73 16.23Q537.53 16.23 537.27 16.16L537.27 16.16L537.27 16.16Q537.01 16.10 536.77 16.01L536.77 16.01L536.77 16.01Q536.52 15.92 536.35 15.81L536.35 15.81L536.35 15.81Q536.17 15.69 536.13 15.61L536.13 15.61L536.13 15.61Q536.12 15.43 536.12 15.25L536.12 15.25L536.12 15.25Q536.12 15.08 536.12 14.88L536.12 14.88L536.12 14.88Q536.12 14.01 536.18 13.12L536.18 13.12L536.18 13.12Q536.24 12.22 536.40 11.27L536.40 11.27L536.40 11.27Q536.20 11.26 535.88 11.23L535.88 11.23L535.88 11.23Q535.56 11.21 535.16 11.20L535.16 11.20L535.16 11.20Q534.76 11.19 534.30 11.16L534.30 11.16L534.30 11.16Q533.85 11.14 533.41 11.13L533.41 11.13L533.41 11.13Q533.08 11.76 532.78 12.38L532.78 12.38L532.78 12.38Q532.49 13.01 532.28 13.64L532.28 13.64L532.28 13.64Q532.04 14.31 531.89 14.98L531.89 14.98L531.89 14.98Q531.75 15.65 531.71 16.24ZM537.11 7.83L537.11 7.83L537.11 7.83Q537.17 7.63 537.24 7.29L537.24 7.29L537.24 7.29Q537.32 6.94 537.39 6.57L537.39 6.57L537.39 6.57Q537.04 6.69 536.61 7.03L536.61 7.03L536.61 7.03Q536.19 7.36 535.73 7.86L535.73 7.86L535.73 7.86Q535.28 8.36 534.81 8.98L534.81 8.98L534.81 8.98Q534.34 9.60 533.90 10.30L533.90 10.30L533.90 10.30Q535.08 10.21 536.58 10.18L536.58 10.18L536.58 10.18Q536.69 9.59 536.82 9.01L536.82 9.01L536.82 9.01Q536.96 8.43 537.11 7.83ZM552.31 4.83L552.31 4.83L552.31 4.83Q552.85 4.83 553.42 5.03L553.42 5.03L553.42 5.03Q553.99 5.22 554.43 5.53L554.43 5.53L554.43 5.53Q554.29 6.24 554.17 6.82L554.17 6.82L554.17 6.82Q554.05 7.39 553.95 7.86L553.95 7.86L553.95 7.86Q553.85 8.33 553.76 8.71L553.76 8.71L553.76 8.71Q553.67 9.10 553.59 9.44L553.59 9.44L553.59 9.44Q553.25 10.70 552.90 11.71L552.90 11.71L552.90 11.71Q552.54 12.73 552.14 13.54L552.14 13.54L552.14 13.54Q551.74 14.35 551.30 14.98L551.30 14.98L551.30 14.98Q550.86 15.61 550.35 16.09L550.35 16.09L550.35 16.09Q549.86 16.55 549.37 16.84L549.37 16.84L549.37 16.84Q548.88 17.14 548.46 17.22L548.46 17.22L548.46 17.22Q547.90 17.22 547.43 17.09L547.43 17.09L547.43 17.09Q546.95 16.97 546.61 16.75L546.61 16.75L546.61 16.75Q546.27 16.53 546.08 16.23L546.08 16.23L546.08 16.23Q545.89 15.93 545.89 15.57L545.89 15.57L545.89 15.57Q545.89 15.18 546.08 14.58L546.08 14.58L546.08 14.58Q546.28 13.99 546.69 13.17L546.69 13.17L546.69 13.17Q546.85 13.19 547.08 13.26L547.08 13.26L547.08 13.26Q547.30 13.33 547.53 13.43L547.53 13.43L547.53 13.43Q547.75 13.52 547.93 13.64L547.93 13.64L547.93 13.64Q548.11 13.76 548.20 13.87L548.20 13.87L548.20 13.87Q547.75 14.34 547.47 14.89L547.47 14.89L547.47 14.89Q547.19 15.44 547.19 15.85L547.19 15.85L547.19 15.85Q547.19 16.09 547.28 16.27L547.28 16.27L547.28 16.27Q547.37 16.46 547.60 16.62L547.60 16.62L547.60 16.62Q548.45 16.30 549.26 15.42L549.26 15.42L549.26 15.42Q550.07 14.55 550.70 13.24L550.70 13.24L550.70 13.24Q551.08 12.47 551.39 11.48L551.39 11.48L551.39 11.48Q551.70 10.49 551.92 9.48L551.92 9.48L551.92 9.48Q552.13 8.48 552.25 7.57L552.25 7.57L552.25 7.57Q552.37 6.65 552.37 6.02L552.37 6.02L552.37 6.02Q552.37 5.92 552.36 5.75L552.36 5.75L552.36 5.75Q552.36 5.57 552.35 5.38L552.35 5.38L552.35 5.38Q552.34 5.19 552.33 5.04L552.33 5.04L552.33 5.04Q552.31 4.89 552.31 4.83ZM581.10 7.63L581.10 7.63L581.10 7.63Q581.10 8.40 580.71 9.10L580.71 9.10L580.71 9.10Q580.33 9.80 579.68 10.32L579.68 10.32L579.68 10.32Q579.03 10.85 578.15 11.16L578.15 11.16L578.15 11.16Q577.28 11.47 576.30 11.47L576.30 11.47L576.30 11.47Q575.95 11.47 575.74 11.38L575.74 11.38L575.74 11.38Q575.54 11.28 575.29 11.02L575.29 11.02L575.29 11.02Q574.59 12.54 574.15 13.82L574.15 13.82L574.15 13.82Q573.71 15.11 573.45 16.31L573.45 16.31L573.45 16.31Q572.92 16.18 572.59 15.87L572.59 15.87L572.59 15.87Q572.25 15.55 571.97 15.08L571.97 15.08L571.97 15.08Q572.11 14.81 572.31 14.38L572.31 14.38L572.31 14.38Q572.50 13.94 572.78 13.31L572.78 13.31L572.78 13.31Q573.06 12.67 573.43 11.78L573.43 11.78L573.43 11.78Q573.80 10.89 574.31 9.70L574.31 9.70L574.31 9.70Q574.53 9.16 574.70 8.75L574.70 8.75L574.70 8.75Q574.87 8.34 574.99 7.99L574.99 7.99L574.99 7.99Q575.12 7.63 575.23 7.28L575.23 7.28L575.23 7.28Q575.33 6.93 575.44 6.51L575.44 6.51L575.44 6.51Q574.78 6.72 574.23 7L574.23 7L574.23 7Q573.68 7.28 573.31 7.59L573.31 7.59L573.31 7.59Q573.19 7.50 573.06 7.34L573.06 7.34L573.06 7.34Q572.92 7.17 572.81 6.96L572.81 6.96L572.81 6.96Q572.70 6.76 572.61 6.55L572.61 6.55L572.61 6.55Q572.53 6.34 572.52 6.17L572.52 6.17L572.52 6.17Q572.92 5.89 573.52 5.66L573.52 5.66L573.52 5.66Q574.13 5.42 574.81 5.24L574.81 5.24L574.81 5.24Q575.50 5.07 576.23 4.97L576.23 4.97L576.23 4.97Q576.97 4.87 577.64 4.87L577.64 4.87L577.64 4.87Q578.44 4.87 579.08 5.07L579.08 5.07L579.08 5.07Q579.73 5.28 580.17 5.64L580.17 5.64L580.17 5.64Q580.62 6.01 580.86 6.51L580.86 6.51L580.86 6.51Q581.10 7.01 581.10 7.63ZM578.61 5.95L578.61 5.95L578.61 5.95Q578.07 5.95 577.51 6.03L577.51 6.03L577.68 6.29L577.68 6.29Q577.54 6.47 577.33 6.83L577.33 6.83L577.33 6.83Q577.12 7.20 576.87 7.71L576.87 7.71L576.87 7.71Q576.62 8.22 576.32 8.85L576.32 8.85L576.32 8.85Q576.02 9.48 575.68 10.18L575.68 10.18L575.68 10.18Q576.77 10.18 577.67 9.97L577.67 9.97L577.67 9.97Q578.56 9.77 579.20 9.41L579.20 9.41L579.20 9.41Q579.84 9.06 580.20 8.58L580.20 8.58L580.20 8.58Q580.55 8.11 580.55 7.56L580.55 7.56L580.55 7.56Q580.55 6.83 580.06 6.39L580.06 6.39L580.06 6.39Q579.57 5.95 578.61 5.95ZM588.18 16.24L588.18 16.24L588.18 16.24Q587.51 16.04 587.25 15.85L587.25 15.85L587.25 15.85Q586.99 15.65 586.99 15.36L586.99 15.36L586.99 15.36Q586.99 15.13 587.12 14.73L587.12 14.73L587.12 14.73Q587.24 14.32 587.49 13.77L587.49 13.77L587.49 13.77Q587.73 13.22 588.08 12.54L588.08 12.54L588.08 12.54Q588.42 11.87 588.85 11.10L588.85 11.10L588.85 11.10Q588.49 11.09 588.20 11.08L588.20 11.08L588.20 11.08Q587.92 11.07 587.73 11.07L587.73 11.07L587.73 11.07Q587.82 10.86 588.21 10.71L588.21 10.71L588.21 10.71Q588.60 10.56 589.25 10.44L589.25 10.44L589.25 10.44Q589.79 9.53 590.42 8.71L590.42 8.71L590.42 8.71Q591.04 7.88 591.67 7.19L591.67 7.19L591.67 7.19Q592.30 6.50 592.93 5.97L592.93 5.97L592.93 5.97Q593.56 5.45 594.13 5.14L594.13 5.14L594.13 5.14Q594.15 5.04 594.15 4.97L594.15 4.97L594.15 4.97Q594.16 4.90 594.16 4.87L594.16 4.87L594.16 4.87Q594.36 4.87 594.69 4.97L594.69 4.97L594.69 4.97Q595.01 5.07 595.33 5.21L595.33 5.21L595.33 5.21Q595.64 5.35 595.89 5.49L595.89 5.49L595.89 5.49Q596.13 5.64 596.16 5.74L596.16 5.74L596.16 5.74Q595.70 6.55 595.25 8.17L595.25 8.17L595.25 8.17Q594.80 9.79 594.51 12.04L594.51 12.04L594.51 12.04Q594.44 12.60 594.39 13.31L594.39 13.31L594.39 13.31Q594.34 14.03 594.34 14.91L594.34 14.91L594.34 14.91Q594.34 15.22 594.34 15.54L594.34 15.54L594.34 15.54Q594.34 15.86 594.37 16.21L594.37 16.21L594.37 16.21Q594.34 16.23 594.31 16.23L594.31 16.23L594.31 16.23Q594.29 16.23 594.20 16.23L594.20 16.23L594.20 16.23Q594.01 16.23 593.75 16.16L593.75 16.16L593.75 16.16Q593.49 16.10 593.24 16.01L593.24 16.01L593.24 16.01Q593.00 15.92 592.82 15.81L592.82 15.81L592.82 15.81Q592.65 15.69 592.61 15.61L592.61 15.61L592.61 15.61Q592.59 15.43 592.59 15.25L592.59 15.25L592.59 15.25Q592.59 15.08 592.59 14.88L592.59 14.88L592.59 14.88Q592.59 14.01 592.66 13.12L592.66 13.12L592.66 13.12Q592.72 12.22 592.87 11.27L592.87 11.27L592.87 11.27Q592.68 11.26 592.35 11.23L592.35 11.23L592.35 11.23Q592.03 11.21 591.63 11.20L591.63 11.20L591.63 11.20Q591.23 11.19 590.78 11.16L590.78 11.16L590.78 11.16Q590.32 11.14 589.89 11.13L589.89 11.13L589.89 11.13Q589.55 11.76 589.26 12.38L589.26 12.38L589.26 12.38Q588.97 13.01 588.76 13.64L588.76 13.64L588.76 13.64Q588.52 14.31 588.37 14.98L588.37 14.98L588.37 14.98Q588.22 15.65 588.18 16.24ZM593.59 7.83L593.59 7.83L593.59 7.83Q593.64 7.63 593.72 7.29L593.72 7.29L593.72 7.29Q593.80 6.94 593.87 6.57L593.87 6.57L593.87 6.57Q593.52 6.69 593.09 7.03L593.09 7.03L593.09 7.03Q592.66 7.36 592.21 7.86L592.21 7.86L592.21 7.86Q591.75 8.36 591.28 8.98L591.28 8.98L591.28 8.98Q590.81 9.60 590.38 10.30L590.38 10.30L590.38 10.30Q591.56 10.21 593.05 10.18L593.05 10.18L593.05 10.18Q593.17 9.59 593.30 9.01L593.30 9.01L593.30 9.01Q593.43 8.43 593.59 7.83ZM612.57 5.74L612.57 5.74L612.57 5.74Q612.61 5.98 612.63 6.07L612.63 6.07L612.63 6.07Q612.65 6.16 612.65 6.31L612.65 6.31L612.65 6.31Q612.65 6.78 612.45 7.18L612.45 7.18L612.45 7.18Q612.25 7.57 611.90 7.74L611.90 7.74L611.90 7.74Q611.62 7.36 611.21 7.09L611.21 7.09L611.21 7.09Q610.81 6.82 610.32 6.64L610.32 6.64L610.32 6.64Q609.84 6.47 609.32 6.38L609.32 6.38L609.32 6.38Q608.80 6.30 608.31 6.30L608.31 6.30L608.31 6.30Q607.82 6.30 607.40 6.38L607.40 6.38L607.40 6.38Q606.97 6.45 606.64 6.59L606.64 6.59L606.64 6.59Q606.31 6.72 606.12 6.92L606.12 6.92L606.12 6.92Q605.93 7.11 605.93 7.36L605.93 7.36L605.93 7.36Q605.98 7.67 606.31 7.99L606.31 7.99L606.31 7.99Q606.65 8.30 607.14 8.60L607.14 8.60L607.14 8.60Q607.63 8.90 608.22 9.20L608.22 9.20L608.22 9.20Q608.82 9.49 609.39 9.76L609.39 9.76L609.39 9.76Q610.11 10.09 610.62 10.38L610.62 10.38L610.62 10.38Q611.14 10.67 611.48 11.01L611.48 11.01L611.48 11.01Q611.81 11.35 611.98 11.79L611.98 11.79L611.98 11.79Q612.15 12.22 612.15 12.84L612.15 12.84L612.15 12.84Q612.15 13.55 611.91 14.18L611.91 14.18L611.91 14.18Q611.67 14.80 611.22 15.26L611.22 15.26L611.22 15.26Q610.76 15.72 610.12 15.98L610.12 15.98L610.12 15.98Q609.48 16.24 608.68 16.24L608.68 16.24L608.68 16.24Q607.89 16.24 606.98 16.00L606.98 16.00L606.98 16.00Q606.07 15.76 605.28 15.35L605.28 15.35L605.28 15.35Q604.49 14.94 603.97 14.40L603.97 14.40L603.97 14.40Q603.44 13.86 603.44 13.26L603.44 13.26L603.44 13.26Q603.44 12.98 603.60 12.54L603.60 12.54L603.60 12.54Q603.76 12.11 604.18 11.63L604.18 11.63L604.18 11.63Q604.23 12.05 604.64 12.63L604.64 12.63L604.64 12.63Q605.05 13.20 605.88 13.69L605.88 13.69L605.88 13.69Q606.65 14.14 607.47 14.34L607.47 14.34L607.47 14.34Q608.29 14.55 609.00 14.55L609.00 14.55L609.00 14.55Q609.78 14.55 610.27 14.35L610.27 14.35L610.27 14.35Q610.76 14.15 611.04 13.88L611.04 13.88L611.04 13.88Q611.32 13.61 611.44 13.33L611.44 13.33L611.44 13.33Q611.55 13.05 611.56 12.88L611.56 12.88L611.56 12.88Q611.55 12.60 611.30 12.34L611.30 12.34L611.30 12.34Q611.06 12.08 610.65 11.84L610.65 11.84L610.65 11.84Q610.23 11.59 609.69 11.34L609.69 11.34L609.69 11.34Q609.14 11.09 608.55 10.84L608.55 10.84L608.55 10.84Q607.67 10.44 607.03 10.10L607.03 10.10L607.03 10.10Q606.40 9.76 605.98 9.40L605.98 9.40L605.98 9.40Q605.57 9.04 605.38 8.65L605.38 8.65L605.38 8.65Q605.19 8.26 605.19 7.76L605.19 7.76L605.19 7.76Q605.19 6.97 605.67 6.27L605.67 6.27L605.67 6.27Q606.14 5.57 607.04 5.21L607.04 5.21L607.04 5.21Q607.49 5.01 608.00 4.93L608.00 4.93L608.00 4.93Q608.51 4.84 609.00 4.84L609.00 4.84L609.00 4.84Q609.92 4.84 610.81 5.10L610.81 5.10L610.81 5.10Q611.69 5.35 612.57 5.74ZM620.90 16.24L620.90 16.24L620.90 16.24Q620.23 16.04 619.97 15.85L619.97 15.85L619.97 15.85Q619.71 15.65 619.71 15.36L619.71 15.36L619.71 15.36Q619.71 15.13 619.84 14.73L619.84 14.73L619.84 14.73Q619.96 14.32 620.21 13.77L620.21 13.77L620.21 13.77Q620.45 13.22 620.80 12.54L620.80 12.54L620.80 12.54Q621.14 11.87 621.57 11.10L621.57 11.10L621.57 11.10Q621.21 11.09 620.92 11.08L620.92 11.08L620.92 11.08Q620.63 11.07 620.45 11.07L620.45 11.07L620.45 11.07Q620.54 10.86 620.93 10.71L620.93 10.71L620.93 10.71Q621.32 10.56 621.96 10.44L621.96 10.44L621.96 10.44Q622.51 9.53 623.13 8.71L623.13 8.71L623.13 8.71Q623.76 7.88 624.39 7.19L624.39 7.19L624.39 7.19Q625.02 6.50 625.65 5.97L625.65 5.97L625.65 5.97Q626.28 5.45 626.85 5.14L626.85 5.14L626.85 5.14Q626.86 5.04 626.87 4.97L626.87 4.97L626.87 4.97Q626.88 4.90 626.88 4.87L626.88 4.87L626.88 4.87Q627.07 4.87 627.40 4.97L627.40 4.97L627.40 4.97Q627.73 5.07 628.05 5.21L628.05 5.21L628.05 5.21Q628.36 5.35 628.61 5.49L628.61 5.49L628.61 5.49Q628.85 5.64 628.88 5.74L628.88 5.74L628.88 5.74Q628.42 6.55 627.97 8.17L627.97 8.17L627.97 8.17Q627.52 9.79 627.23 12.04L627.23 12.04L627.23 12.04Q627.16 12.60 627.11 13.31L627.11 13.31L627.11 13.31Q627.06 14.03 627.06 14.91L627.06 14.91L627.06 14.91Q627.06 15.22 627.06 15.54L627.06 15.54L627.06 15.54Q627.06 15.86 627.09 16.21L627.09 16.21L627.09 16.21Q627.06 16.23 627.03 16.23L627.03 16.23L627.03 16.23Q627.00 16.23 626.92 16.23L626.92 16.23L626.92 16.23Q626.72 16.23 626.47 16.16L626.47 16.16L626.47 16.16Q626.21 16.10 625.96 16.01L625.96 16.01L625.96 16.01Q625.72 15.92 625.54 15.81L625.54 15.81L625.54 15.81Q625.37 15.69 625.32 15.61L625.32 15.61L625.32 15.61Q625.31 15.43 625.31 15.25L625.31 15.25L625.31 15.25Q625.31 15.08 625.31 14.88L625.31 14.88L625.31 14.88Q625.31 14.01 625.37 13.12L625.37 13.12L625.37 13.12Q625.44 12.22 625.59 11.27L625.59 11.27L625.59 11.27Q625.39 11.26 625.07 11.23L625.07 11.23L625.07 11.23Q624.75 11.21 624.35 11.20L624.35 11.20L624.35 11.20Q623.95 11.19 623.50 11.16L623.50 11.16L623.50 11.16Q623.04 11.14 622.61 11.13L622.61 11.13L622.61 11.13Q622.27 11.76 621.98 12.38L621.98 12.38L621.98 12.38Q621.68 13.01 621.47 13.64L621.47 13.64L621.47 13.64Q621.24 14.31 621.09 14.98L621.09 14.98L621.09 14.98Q620.94 15.65 620.90 16.24ZM626.30 7.83L626.30 7.83L626.30 7.83Q626.36 7.63 626.44 7.29L626.44 7.29L626.44 7.29Q626.51 6.94 626.58 6.57L626.58 6.57L626.58 6.57Q626.23 6.69 625.81 7.03L625.81 7.03L625.81 7.03Q625.38 7.36 624.93 7.86L624.93 7.86L624.93 7.86Q624.47 8.36 624.00 8.98L624.00 8.98L624.00 8.98Q623.53 9.60 623.10 10.30L623.10 10.30L623.10 10.30Q624.27 10.21 625.77 10.18L625.77 10.18L625.77 10.18Q625.88 9.59 626.02 9.01L626.02 9.01L626.02 9.01Q626.15 8.43 626.30 7.83Z"></path></g></svg>