<svg data-v-fde0c5aa="" xmlns="http://www.w3.org/2000/svg" viewBox="0 0 300 300" class="font"><!----><defs data-v-fde0c5aa=""><!----></defs><rect data-v-fde0c5aa="" fill="transparent" x="0" y="0" width="300px" height="300px" class="logo-background-square"></rect><defs data-v-fde0c5aa=""><linearGradient data-v-fde0c5aa="" gradientTransform="rotate(25)" id="ba02a9cc-a509-4ecf-962c-ea653375abf8" x1="0%" y1="0%" x2="100%" y2="0%"><stop data-v-fde0c5aa="" offset="0%" stop-color="#AF0101" stop-opacity="1"></stop><stop data-v-fde0c5aa="" offset="100%" stop-color="#604040" stop-opacity="1"></stop></linearGradient></defs><g data-v-fde0c5aa="" id="84b33dbd-ec49-420b-8685-07f0d2bcf392" fill="url(#ba02a9cc-a509-4ecf-962c-ea653375abf8)" transform="matrix(2.1016430854797363,0,0,2.1016430854797363,37.45701177286706,125.04298822713294)"><path d="M5.37 16.00C8.69 16.00 10.91 14.62 10.91 12.54C10.91 9.71 4.90 9.35 4.90 7.01C4.90 5.72 5.97 4.87 7.58 4.87C9.60 4.87 9.96 5.93 10.14 7.83C10.52 7.83 11.53 7.38 11.53 6.69C11.53 5.01 9.04 4.53 7.65 4.53C4.44 4.53 2.71 5.82 2.71 8.23C2.71 11.25 8.78 11.26 8.78 13.42C8.78 14.77 7.44 15.66 5.44 15.66C3.42 15.66 2.78 14.60 2.60 12.70C2.22 12.70 1.21 13.15 1.21 13.84C1.21 15.54 3.94 16.00 5.37 16.00ZM19.76 9.30C19.61 9.30 19.08 9.38 18.76 10.10C18.42 9.48 17.74 9.15 16.66 9.15C14.04 9.15 12.29 10.83 12.29 13.33C12.29 14.93 13.51 16.00 15.33 16.00C17.07 16.00 17.88 14.96 18.38 13.92C18.38 15.25 19.15 16.00 19.97 16.00C20.56 16.00 21.17 15.63 21.57 14.85L22.17 13.67L22.05 13.60L21.58 14.51C21.37 14.92 20.97 15.16 20.62 15.16C20.28 15.16 19.99 14.93 19.99 14.43C19.99 14.33 20.00 14.23 20.02 14.11L20.34 12.91C20.50 12.33 21.05 10.04 21.12 9.30ZM18.55 10.31C18.58 10.35 18.59 10.42 18.59 10.49C18.59 10.60 18.57 10.71 18.57 10.77L18.44 12.56C18.44 12.65 18.40 13.00 18.34 13.15C17.94 14.19 17.21 15.53 15.93 15.53C14.93 15.53 14.40 14.98 14.40 13.97C14.40 11.30 15.52 9.52 17.21 9.52C17.68 9.52 18.27 9.75 18.55 10.31ZM30.50 9.30C30.34 9.30 29.82 9.38 29.50 10.10C29.16 9.48 28.48 9.15 27.40 9.15C24.78 9.15 23.03 10.83 23.03 13.33C23.03 14.93 24.25 16.00 26.07 16.00C27.81 16.00 28.62 14.96 29.11 13.92C29.11 15.25 29.89 16.00 30.71 16.00C31.29 16.00 31.91 15.63 32.31 14.85L32.91 13.67L32.79 13.60L32.32 14.51C32.11 14.92 31.71 15.16 31.36 15.16C31.01 15.16 30.73 14.93 30.73 14.43C30.73 14.33 30.74 14.23 30.76 14.11L31.08 12.91C31.24 12.33 31.79 10.04 31.86 9.30ZM29.29 10.31C29.32 10.35 29.33 10.42 29.33 10.49C29.33 10.60 29.31 10.71 29.31 10.77L29.18 12.56C29.18 12.65 29.14 13.00 29.08 13.15C28.68 14.19 27.95 15.53 26.67 15.53C25.67 15.53 25.14 14.98 25.14 13.97C25.14 11.30 26.26 9.52 27.95 9.52C28.42 9.52 29.00 9.75 29.29 10.31ZM37.99 16.00C41.31 16.00 43.53 14.62 43.53 12.54C43.53 9.71 37.52 9.35 37.52 7.01C37.52 5.72 38.60 4.87 40.20 4.87C42.23 4.87 42.58 5.93 42.76 7.83C43.14 7.83 44.15 7.38 44.15 6.69C44.15 5.01 41.67 4.53 40.27 4.53C37.06 4.53 35.33 5.82 35.33 8.23C35.33 11.25 41.40 11.26 41.40 13.42C41.40 14.77 40.07 15.66 38.06 15.66C36.04 15.66 35.40 14.60 35.23 12.70C34.84 12.70 33.83 13.15 33.83 13.84C33.83 15.54 36.57 16.00 37.99 16.00ZM52.19 5.71C52.19 6.28 52.64 6.77 53.25 6.77C53.81 6.77 54.30 6.31 54.30 5.71C54.30 5.13 53.84 4.65 53.25 4.65C52.67 4.65 52.19 5.11 52.19 5.71ZM55.05 13.67L54.93 13.60L54.46 14.51C54.25 14.92 53.85 15.15 53.50 15.15C53.18 15.15 52.91 14.94 52.91 14.51C52.91 14.39 52.93 14.26 52.97 14.11L53.31 12.91C53.46 12.32 54.05 10.04 54.12 9.30L52.49 9.30C51.74 9.30 51.06 9.45 50.61 10.34L50.22 11.11L50.34 11.17L50.74 10.40C50.95 9.99 51.19 9.73 51.36 9.73C51.48 9.73 51.56 9.86 51.56 10.17C51.56 10.32 51.54 10.49 51.51 10.71L51.18 12.56C51.09 13.04 50.95 13.71 50.95 14.31C50.95 15.39 51.75 15.94 52.62 15.94C53.33 15.94 54.07 15.58 54.45 14.85ZM58.78 16.00C60.83 16.00 62.66 15.22 62.66 13.85C62.66 12.82 61.52 12.35 60.43 11.81C59.53 11.37 58.55 11.19 58.55 10.58C58.55 9.78 59.29 9.50 60.05 9.49C61.13 9.49 61.62 9.93 61.74 11.18C62.32 11.18 62.70 10.86 62.70 10.39C62.70 10.28 62.67 10.16 62.58 10.04C62.02 9.26 61.11 9.16 60.12 9.16C58.07 9.16 56.58 9.83 56.58 11.28C56.58 12.20 57.55 12.78 58.60 13.11C59.73 13.46 60.93 13.75 60.93 14.40C60.93 15.19 59.93 15.66 58.85 15.66C57.59 15.66 56.81 15.06 56.70 13.84L56.69 13.79C56.02 13.79 55.66 14.08 55.66 14.61C55.66 14.72 55.69 14.84 55.78 14.96C56.38 15.82 57.64 16.00 58.78 16.00ZM70.99 14.11C70.86 14.83 70.39 15.15 69.97 15.15C69.61 15.15 69.29 14.92 69.24 14.51L69.09 14.57C69.21 15.54 69.80 15.93 70.71 15.93C72.44 15.93 72.91 13.77 73.15 12.56L73.53 10.66L74.02 10.30C74.44 9.99 74.61 9.95 74.80 9.95C75.37 9.95 75.95 10.58 76.47 11.57C79.40 17.24 81.25 19.24 83.02 19.24C84.94 19.24 85.73 18.42 85.73 17.81C85.73 17.23 84.85 17.05 84.49 17.05C84.23 18.06 83.71 18.47 82.74 18.47C81.31 18.47 80.61 15.94 79.68 13.52C78.83 11.31 77.78 9.20 75.83 9.20C75.56 9.20 75.28 9.23 74.98 9.34C76.54 7.93 78.76 6.17 80.20 6.17C80.42 6.17 80.61 6.21 80.79 6.30C80.99 6.10 81.32 5.58 81.32 5.15C81.32 4.80 81.10 4.51 80.41 4.51C78.65 4.51 74.78 9.00 73.64 10.17L74.13 8.26C74.27 7.68 74.87 5.40 74.94 4.66C74.94 4.66 74.00 4.68 73.31 4.68C72.93 4.68 72.09 4.61 71.31 4.58L71.29 4.72C72.18 4.76 72.43 4.84 72.43 5.33C72.43 5.52 72.39 5.78 72.33 6.13ZM83.73 5.71C83.73 6.28 84.18 6.77 84.79 6.77C85.35 6.77 85.85 6.31 85.85 5.71C85.85 5.13 85.38 4.65 84.79 4.65C84.21 4.65 83.73 5.11 83.73 5.71ZM86.59 13.67L86.47 13.60L86.00 14.51C85.79 14.92 85.39 15.15 85.05 15.15C84.72 15.15 84.45 14.94 84.45 14.51C84.45 14.39 84.47 14.26 84.51 14.11L84.85 12.91C85.00 12.32 85.59 10.04 85.66 9.30L84.03 9.30C83.28 9.30 82.61 9.45 82.15 10.34L81.76 11.11L81.88 11.17L82.28 10.40C82.49 9.99 82.74 9.73 82.90 9.73C83.02 9.73 83.10 9.86 83.10 10.17C83.10 10.32 83.08 10.49 83.05 10.71L82.72 12.56C82.63 13.04 82.49 13.71 82.49 14.31C82.49 15.39 83.30 15.94 84.16 15.94C84.88 15.94 85.61 15.58 85.99 14.85ZM89.52 9.23C88.76 9.23 88.09 9.43 87.64 10.31L87.24 11.08L87.36 11.14L87.76 10.37C87.96 9.97 88.20 9.72 88.38 9.72C88.50 9.72 88.59 9.86 88.59 10.19C88.59 10.32 88.57 10.49 88.53 10.71L87.72 15.56C87.72 15.57 87.71 15.65 87.71 15.65C87.71 15.79 88.18 15.86 88.63 15.86L89.46 15.86C89.50 15.86 89.59 15.83 89.60 15.78L90.33 12.91C90.41 12.59 90.53 12.18 90.62 11.75L92.33 10.34C92.63 10.10 93.01 9.84 93.29 9.84C93.59 9.84 93.68 10.10 93.68 10.45C93.68 10.90 93.53 11.48 93.45 11.87L93.28 12.60C93.17 13.10 93.11 13.60 93.11 14.06C93.11 15.16 93.51 16.02 94.81 16.02C95.35 16.02 95.93 15.67 96.35 14.85L96.98 13.60L96.87 13.53L96.36 14.51C96.15 14.92 95.79 15.14 95.50 15.14C95.24 15.14 95.03 14.96 95.03 14.58C95.03 14.45 95.05 14.29 95.11 14.11L95.48 12.91C95.68 12.22 95.88 11.45 95.88 10.79C95.88 9.87 95.50 9.16 94.24 9.16C93.65 9.16 92.86 9.47 92.11 10.08L90.72 11.22C90.75 11.01 90.77 10.81 90.77 10.61C90.77 9.84 90.49 9.23 89.52 9.23ZM100.93 13.33C100.13 13.33 99.77 13.02 99.77 12.25C99.77 10.70 100.53 9.50 101.67 9.50C102.42 9.50 102.81 9.93 102.81 10.74C102.81 12.39 102.08 13.33 100.93 13.33ZM100.57 18.32C99.11 18.32 98.14 17.91 98.14 17.30C98.14 17.16 98.18 17.01 98.25 16.84C98.19 16.82 98.10 16.80 97.98 16.80C97.67 16.80 97.25 16.94 97.25 17.46L97.25 17.47C97.25 18.19 98.55 18.66 100.51 18.66C102.84 18.66 104.60 17.96 104.60 16.00C104.60 14.70 103.69 14.32 102.83 14.32C101.68 14.32 100.19 14.96 99.29 14.96C98.84 14.96 98.55 14.81 98.55 14.32C98.55 14.14 98.75 13.79 99.20 13.58L99.46 13.46C99.85 13.60 100.32 13.67 100.86 13.67C102.87 13.67 104.49 12.67 104.49 10.92C104.49 10.32 104.23 9.86 103.74 9.57C103.93 9.50 104.11 9.46 104.28 9.46C104.79 9.46 105.08 9.80 105.13 10.31C105.32 10.30 105.89 10.04 105.89 9.63C105.89 9.27 105.64 9.04 105.11 9.04C104.65 9.04 104.08 9.22 103.54 9.47C103.10 9.26 102.49 9.15 101.74 9.15C99.65 9.15 98.12 10.02 98.12 11.81C98.12 12.45 98.46 12.97 99.07 13.29L98.83 13.40C97.99 13.79 97.63 14.66 97.63 15.19C97.63 16.19 98.51 16.52 99.64 16.52C100.70 16.52 101.95 16.30 102.80 16.30C103.38 16.30 103.76 16.40 103.76 16.75C103.76 17.71 102.20 18.32 100.57 18.32Z"></path></g><!----><!----></svg>